<svg id="visual" viewBox="0 0 600 900" width="600" height="900" xmlns="http://www.w3.org/2000/svg" xmlns:xlink="http://www.w3.org/1999/xlink" version="1.1"><rect x="0" y="0" width="600" height="900" fill="#F6F1E9"></rect><defs><linearGradient id="grad1_0" x1="0%" y1="100%" x2="100%" y2="0%"><stop offset="30%" stop-color="#ff870d" stop-opacity="1"></stop><stop offset="70%" stop-color="#ff870d" stop-opacity="1"></stop></linearGradient></defs><defs><linearGradient id="grad1_1" x1="0%" y1="100%" x2="100%" y2="0%"><stop offset="30%" stop-color="#ff870d" stop-opacity="1"></stop><stop offset="70%" stop-color="#fac17d" stop-opacity="1"></stop></linearGradient></defs><defs><linearGradient id="grad1_2" x1="0%" y1="100%" x2="100%" y2="0%"><stop offset="30%" stop-color="#f6f1e9" stop-opacity="1"></stop><stop offset="70%" stop-color="#fac17d" stop-opacity="1"></stop></linearGradient></defs><defs><linearGradient id="grad2_0" x1="0%" y1="100%" x2="100%" y2="0%"><stop offset="30%" stop-color="#ff870d" stop-opacity="1"></stop><stop offset="70%" stop-color="#ff870d" stop-opacity="1"></stop></linearGradient></defs><defs><linearGradient id="grad2_1" x1="0%" y1="100%" x2="100%" y2="0%"><stop offset="30%" stop-color="#fac17d" stop-opacity="1"></stop><stop offset="70%" stop-color="#ff870d" stop-opacity="1"></stop></linearGradient></defs><defs><linearGradient id="grad2_2" x1="0%" y1="100%" x2="100%" y2="0%"><stop offset="30%" stop-color="#fac17d" stop-opacity="1"></stop><stop offset="70%" stop-color="#f6f1e9" stop-opacity="1"></stop></linearGradient></defs><g transform="translate(600, 900)"><path d="M-432.7 0C-432.3 -39.3 -432 -78.5 -417.9 -112C-403.8 -145.5 -375.9 -173.2 -354.2 -204.5C-332.5 -235.8 -317 -270.8 -286.4 -286.4C-255.8 -302 -210.1 -298.2 -177 -306.6C-143.9 -314.9 -123.4 -335.3 -96 -358.4C-68.6 -381.4 -34.3 -407 0 -432.7L0 0Z" fill="#f7dab2"></path><path d="M-288.4 0C-288.2 -26.2 -288 -52.3 -278.6 -74.7C-269.2 -97 -250.6 -115.4 -236.1 -136.3C-221.7 -157.2 -211.3 -180.5 -190.9 -190.9C-170.5 -201.3 -140.1 -198.8 -118 -204.4C-95.9 -209.9 -82.3 -223.6 -64 -238.9C-45.7 -254.3 -22.9 -271.4 0 -288.4L0 0Z" fill="#fca64a"></path><path d="M-144.2 0C-144.1 -13.1 -144 -26.2 -139.3 -37.3C-134.6 -48.5 -125.3 -57.7 -118.1 -68.2C-110.8 -78.6 -105.7 -90.3 -95.5 -95.5C-85.3 -100.7 -70 -99.4 -59 -102.2C-48 -105 -41.1 -111.8 -32 -119.5C-22.9 -127.1 -11.4 -135.7 0 -144.2L0 0Z" fill="#ff870d"></path></g><g transform="translate(0, 0)"><path d="M432.7 0C419 34 405.4 68 399.9 107.2C394.4 146.3 396.9 190.5 374.7 216.3C352.5 242.2 305.4 249.6 277.2 277.2C249 304.7 239.6 352.4 211.5 366.3C183.4 380.3 136.5 360.6 98.1 366.1C59.7 371.5 29.9 402.1 0 432.7L0 0Z" fill="#f7dab2"></path><path d="M288.4 0C279.4 22.7 270.3 45.4 266.6 71.4C262.9 97.5 264.6 127 249.8 144.2C235 161.5 203.6 166.4 184.8 184.8C166 203.2 159.8 234.9 141 244.2C122.2 253.5 91 240.4 65.4 244.1C39.8 247.7 19.9 268.1 0 288.4L0 0Z" fill="#fca64a"></path><path d="M144.2 0C139.7 11.3 135.1 22.7 133.3 35.7C131.5 48.8 132.3 63.5 124.9 72.1C117.5 80.7 101.8 83.2 92.4 92.4C83 101.6 79.9 117.5 70.5 122.1C61.1 126.8 45.5 120.2 32.7 122C19.9 123.8 10 134 0 144.2L0 0Z" fill="#ff870d"></path></g></svg>