<svg id="visual" viewBox="0 0 900 600" width="900" height="600" xmlns="http://www.w3.org/2000/svg" xmlns:xlink="http://www.w3.org/1999/xlink" version="1.1"><rect x="0" y="0" width="900" height="600" fill="#F6F1E9"></rect><defs><linearGradient id="grad1_0" x1="33.3%" y1="100%" x2="100%" y2="0%"><stop offset="20%" stop-color="#ff870d" stop-opacity="1"></stop><stop offset="80%" stop-color="#ff870d" stop-opacity="1"></stop></linearGradient></defs><defs><linearGradient id="grad1_1" x1="33.3%" y1="100%" x2="100%" y2="0%"><stop offset="20%" stop-color="#ff870d" stop-opacity="1"></stop><stop offset="80%" stop-color="#fac17d" stop-opacity="1"></stop></linearGradient></defs><defs><linearGradient id="grad1_2" x1="33.3%" y1="100%" x2="100%" y2="0%"><stop offset="20%" stop-color="#f6f1e9" stop-opacity="1"></stop><stop offset="80%" stop-color="#fac17d" stop-opacity="1"></stop></linearGradient></defs><defs><linearGradient id="grad2_0" x1="0%" y1="100%" x2="66.7%" y2="0%"><stop offset="20%" stop-color="#ff870d" stop-opacity="1"></stop><stop offset="80%" stop-color="#ff870d" stop-opacity="1"></stop></linearGradient></defs><defs><linearGradient id="grad2_1" x1="0%" y1="100%" x2="66.7%" y2="0%"><stop offset="20%" stop-color="#fac17d" stop-opacity="1"></stop><stop offset="80%" stop-color="#ff870d" stop-opacity="1"></stop></linearGradient></defs><defs><linearGradient id="grad2_2" x1="0%" y1="100%" x2="66.7%" y2="0%"><stop offset="20%" stop-color="#fac17d" stop-opacity="1"></stop><stop offset="80%" stop-color="#f6f1e9" stop-opacity="1"></stop></linearGradient></defs><g transform="translate(900, 600)"><path d="M-378.6 0C-379.6 -55.8 -380.7 -111.6 -349.8 -144.9C-318.8 -178.2 -256 -188.9 -217.8 -217.8C-179.6 -246.6 -166.1 -293.5 -133.9 -323.4C-101.8 -353.2 -50.9 -365.9 0 -378.6L0 0Z" fill="#f7dab2"></path><path d="M-252.4 0C-253.1 -37.2 -253.8 -74.4 -233.2 -96.6C-212.6 -118.8 -170.6 -126 -145.2 -145.2C-119.7 -164.4 -110.7 -195.7 -89.3 -215.6C-67.8 -235.4 -33.9 -243.9 0 -252.4L0 0Z" fill="#fca64a"></path><path d="M-126.2 0C-126.5 -18.6 -126.9 -37.2 -116.6 -48.3C-106.3 -59.4 -85.3 -63 -72.6 -72.6C-59.9 -82.2 -55.4 -97.8 -44.6 -107.8C-33.9 -117.7 -17 -122 0 -126.2L0 0Z" fill="#ff870d"></path></g><g transform="translate(0, 0)"><path d="M378.6 0C337.6 34.2 296.6 68.5 284.6 117.9C272.5 167.3 289.5 231.9 267.7 267.7C245.9 303.5 185.4 310.6 134.3 324.3C83.2 338 41.6 358.3 0 378.6L0 0Z" fill="#f7dab2"></path><path d="M252.4 0C225.1 22.8 197.7 45.6 189.7 78.6C181.7 111.5 193 154.6 178.5 178.5C163.9 202.4 123.6 207.1 89.5 216.2C55.5 225.3 27.7 238.9 0 252.4L0 0Z" fill="#fca64a"></path><path d="M126.2 0C112.5 11.4 98.9 22.8 94.9 39.3C90.8 55.8 96.5 77.3 89.2 89.2C82 101.2 61.8 103.5 44.8 108.1C27.7 112.7 13.9 119.4 0 126.2L0 0Z" fill="#ff870d"></path></g></svg>