<svg width="506" height="456" viewBox="0 0 506 456" fill="none" xmlns="http://www.w3.org/2000/svg">
<path fill-rule="evenodd" clip-rule="evenodd" d="M199.658 4.55705L196.003 8.21038V102.165C196.003 163.306 196.535 197.113 197.525 198.964C198.818 201.38 198.427 201.961 194.919 202.835C192.649 203.4 186.179 205.761 180.538 208.082C174.899 210.403 169.428 212.301 168.38 212.301C167.332 212.301 165.246 209.797 163.745 206.738C160.414 199.943 153.368 195.031 144.98 193.655C141.519 193.088 137.682 191.739 136.454 190.66C135.226 189.579 131.135 187.373 127.364 185.756C118.296 181.869 117.133 178.708 123.754 175.942C134.19 171.582 143.898 152.212 143.898 135.747C143.898 127.46 144.33 126.015 147.411 123.996C151.907 121.05 155.808 117.151 155.808 115.603C155.808 114.937 151.286 110.538 145.759 105.823C136.025 97.5221 125.493 82.6616 117.09 65.37C108.265 47.2091 89.202 39.5689 65.3213 44.6202C35.0853 51.0142 13.1697 71.4232 8.34179 97.6858C6.20696 109.292 8.74524 121.708 15.4445 132.442C21.3354 141.882 38.7193 161.892 47.3509 169.17C51.3824 172.569 55.716 176.932 56.9829 178.865C59.1714 182.205 59.0404 182.63 54.3256 187.398C45.5317 196.292 29.7869 227.796 18.8135 258.452C8.31053 287.798 2.28863 318.401 0.214832 352.986C-0.760284 369.244 1.7914 421.481 3.70441 424.406C4.25226 425.246 5.37178 432.633 6.19058 440.821C7.00938 449.009 8.31648 455.537 9.09657 455.327C9.90049 455.11 10.3278 449.118 10.0851 441.452L9.65782 427.958L14.3845 430.403C26.9315 436.891 70.7641 442.08 114.123 442.213C157.917 442.345 182.122 438.449 205.979 427.425L216.79 422.431L218.212 427.905C218.994 430.915 220.344 437.339 221.212 442.18C222.078 447.021 223.126 451.319 223.539 451.732C225.891 454.084 225.763 449.01 223.146 436.07C220.499 422.986 220.426 421.199 222.449 418.887C225.078 415.88 224.154 408.233 216.662 371.062C214.21 358.896 212.412 348.779 212.664 348.578C213.159 348.186 324.546 366.852 394.583 379.066C418.237 383.189 437.929 386.226 438.341 385.814C438.753 385.402 438.158 384.742 437.018 384.351C435.111 383.694 358.98 370.587 253.892 352.824L211.294 345.623L208.218 335.182C206.527 329.439 205.265 324.673 205.412 324.592C205.559 324.51 212.714 325.043 221.312 325.774C238.527 327.24 272.933 326.117 284.582 323.71C294.707 321.617 303.184 316.462 310.884 307.712L317.334 300.38L353.064 304.824C372.715 307.267 392.144 309.014 396.24 308.704C403.118 308.184 407.276 305.713 450.578 276.43C476.369 258.989 498.643 243.382 500.076 241.744C503.339 238.018 503.461 230.751 500.29 228.977C498.203 227.808 498.392 227.147 501.779 223.76L505.658 219.88V121.639V23.3999L502.221 19.4026C499.562 16.312 497.117 15.2684 491.428 14.7965C484.621 14.2323 210.279 0.902222 205.466 0.902222C204.281 0.902222 201.668 2.54727 199.658 4.55705ZM267.462 16.519C294.073 17.7427 321.46 19.1495 328.32 19.6483L340.794 20.5549L332.24 24.0326C322.015 28.1876 317.25 32.3546 315.028 39.0836C313.08 44.9894 317.25 44.7333 268.951 41.9077C247.772 40.6691 233.407 40.3996 232.551 41.2244C231.688 42.0551 234.009 42.6193 238.506 42.6699C252.654 42.8292 310.665 46.5868 311.475 47.3952C312.419 48.3405 307.923 66.7158 306.427 68.0289C305.876 68.5112 295.711 68.0527 283.838 67.0106C260.752 64.9845 233.58 64.0614 232.379 65.2643C231.975 65.6663 239.538 66.4479 249.182 67.0002C268.931 68.1301 305.225 71.048 305.806 71.5527C306.41 72.0767 294.011 119.14 292.965 120.292C292.449 120.861 278.419 120.154 261.789 118.719C245.158 117.285 231.274 116.56 230.935 117.111C230.199 118.3 237.96 119.219 269.344 121.656C289.51 123.22 292.718 123.809 292.148 125.833C291.782 127.128 290.324 132.448 288.909 137.652L286.333 147.117L279.503 146.226C250.419 142.428 229.375 141.334 233.221 143.82C234.45 144.613 239.139 145.306 243.642 145.358C253.525 145.471 283.429 148.868 284.568 150.007C285.014 150.454 284.362 155.652 283.121 161.56C281.877 167.467 280.861 177.616 280.861 184.112V195.925L274.534 195.884C271.053 195.86 256.148 194.87 241.409 193.682C226.671 192.494 213.441 191.508 212.007 191.49C209.555 191.461 209.402 186.237 209.402 102.88V14.3008L214.24 14.2993C216.9 14.2978 240.851 15.2967 267.462 16.519ZM424.895 24.1695L489.282 26.7778V119.539C489.282 206.897 489.13 212.3 486.677 212.287C485.245 212.279 458.615 210.275 427.5 207.835C396.386 205.395 369.462 203.391 367.67 203.384C364.418 203.369 364.417 203.354 366.952 196.298C368.35 192.408 371.491 186.066 373.933 182.202C379.193 173.879 376.528 174.181 417.079 177.306C450.809 179.907 464.208 180.136 460.997 178.061C459.768 177.267 453.404 176.593 446.854 176.563C434.365 176.505 382.189 172.697 381.268 171.777C380.974 171.482 381.975 167.25 383.492 162.37C386.681 152.111 384.805 152.587 413.357 154.796C421.955 155.462 428.462 155.474 427.819 154.822C427.174 154.17 417.795 152.935 406.977 152.078L387.305 150.519L386.283 144.564C385.722 141.289 384.792 136.69 384.215 134.344L383.17 130.078L393.425 131.047C430.358 134.538 463.143 135.666 461.741 133.399C461.235 132.58 455.333 131.912 448.627 131.915C435.617 131.919 390.922 129.236 385.607 128.132C380.826 127.137 380.394 123.883 383.919 115.4L387.105 107.735L411.024 108.786C424.18 109.363 441.633 110.403 449.81 111.093C463.313 112.237 467.1 112.094 465.339 110.51C464.365 109.636 419.739 106.579 408.112 106.591C396.264 106.603 371.658 100.924 361.252 95.7743L354.553 92.4589L354.118 61.1956C353.624 25.761 354.143 20.3122 357.941 21.0596C359.352 21.3365 389.481 22.7359 424.895 24.1695ZM350.831 56.7295C350.831 75.1525 350.31 90.2258 349.674 90.2258C348.251 90.2258 343.543 87.1054 333.38 79.4266C324.503 72.7184 316.59 58.9745 316.59 50.2624C316.59 43.3801 321.667 33.0825 326.681 29.7984C331.59 26.5813 341.254 23.4654 346.737 23.3329L350.831 23.2331V56.7295ZM370.929 45.2246C371.747 46.0642 386.486 47.4934 403.681 48.4015C420.875 49.3097 442.145 50.4381 450.948 50.9115C459.975 51.3954 466.951 51.1914 466.951 50.4411C466.951 49.7116 449.03 48.2943 427.128 47.2924C405.226 46.2905 383.285 45.0727 378.372 44.5844C372.28 43.98 369.913 44.1825 370.929 45.2246ZM88.9578 47.1867C99.5144 49.3067 107.827 55.1127 112.216 63.4287C114.162 67.1133 118.363 74.1476 121.555 79.0604C134.316 98.7101 140.873 117.157 140.902 133.5C140.944 156.543 130.907 172.139 113.69 175.78C111.342 176.277 109.95 177.331 110.491 178.205C111.016 179.057 112.383 179.393 113.528 178.954C114.906 178.425 116.87 180.642 119.343 185.521L123.075 192.887L119.715 193.536C108.363 195.732 70.3175 198.837 65.0638 197.996C58.1144 196.886 55.9274 193.933 59.4468 190.414C61.5251 188.336 62.0104 188.602 64.4147 193.136C69.2262 202.206 68.4878 193.883 63.6271 184.254C60.6824 178.419 59.7088 175.109 60.8283 174.735C61.7826 174.418 62.0387 173.343 61.4045 172.317C60.5946 171.007 59.7177 170.927 58.3779 172.037C56.98 173.197 54.6382 171.972 49.3339 167.303C38.7371 157.975 21.6495 137.925 16.9705 129.327C-0.602476 97.0397 20.4466 59.5432 62.3022 48.5787C75.1856 45.2037 78.2762 45.0415 88.9578 47.1867ZM318.512 67.292C325.26 80.3422 353.29 98.588 375.167 104.172C379.955 105.394 384.046 106.609 384.26 106.87C384.748 107.47 365.246 149.255 363.803 150.696C363.218 151.281 362.741 148.633 362.741 144.813C362.741 136.747 361.215 136.184 355.322 142.077C350.25 147.149 347.873 154.976 347.862 166.644L347.853 175.324L334.647 190.463C315.048 212.928 316.568 211.955 308.481 207.216C304.776 205.044 298.521 200.046 294.585 196.11C286.327 187.851 283.192 179.66 284.629 170.084L285.58 163.735L295.502 173.612C301.353 179.436 308.785 185.076 313.613 187.355C324.194 192.351 328.5 193.567 328.5 191.559C328.5 190.685 327.663 189.97 326.639 189.969C322.39 189.966 305.831 180.788 299.428 174.885C290.039 166.231 287.747 161.393 288.807 152.45C290.001 142.363 291.039 141.425 295.026 146.827C296.925 149.403 300.713 153.183 303.442 155.228C313.261 162.587 333.788 171.583 337.749 170.263C338.729 169.937 335.875 168.484 331.409 167.034C313.114 161.092 295.806 148.27 293.46 138.919C292.964 136.945 293.676 131.49 295.039 126.798L297.52 118.264L300.728 122.827C302.492 125.337 307.955 130.49 312.868 134.277C322.016 141.331 341.616 152.042 342.943 150.714C343.35 150.308 340.1 148.166 335.719 145.953C319.361 137.691 305.042 126.232 300.677 117.907C298.627 113.996 298.655 112.673 300.972 104.116L303.534 94.6488L307.723 101.254C312.306 108.481 329.214 121.893 341.477 128.026C353.856 134.218 354.209 132.425 341.898 125.887C326.468 117.693 312.326 105.866 308.073 97.6025C304.85 91.3379 304.726 90.2511 306.409 82.9653L308.225 75.0944L311.575 81.6865C313.418 85.31 318.576 91.6148 323.039 95.6939C331.226 103.176 350.852 114.05 356.153 114.041C357.73 114.038 352.933 111.058 345.494 107.418C317.966 93.9461 306.404 77.4972 312.393 60.3173C314.12 55.3628 314.169 55.339 315.145 58.9893C315.691 61.0319 317.206 64.7686 318.512 67.292ZM376.884 64.9859C387.357 66.6176 418.091 66.4791 408.891 64.8415C405.206 64.1865 394.823 63.6893 385.816 63.7384C372.404 63.8098 370.787 64.0361 376.884 64.9859ZM104.511 67.7922C103.494 69.4372 105.841 71.2148 107.217 69.8392C108.631 68.4234 108.368 66.4062 106.767 66.4062C105.996 66.4062 104.981 67.03 104.511 67.7922ZM95.6586 72.1289C95.1435 72.9625 95.4472 74.0925 96.333 74.6403C98.6226 76.0546 100.099 74.1178 98.1879 72.2063C97.119 71.1374 96.2868 71.1121 95.6586 72.1289ZM88.1346 78.2133C87.1177 79.8583 89.4655 81.6359 90.8411 80.2603C92.2553 78.8445 91.9918 76.8273 90.3915 76.8273C89.6203 76.8273 88.605 77.451 88.1346 78.2133ZM369.632 82.4696C369.181 83.2005 382.916 84.6148 400.392 85.6376C417.758 86.6529 440.005 88.3277 449.831 89.3564C466.712 91.1265 469.868 91.1578 468.25 89.5395C467.126 88.4155 424.569 84.5151 402.936 83.5548C391.882 83.0635 380.05 82.3222 376.644 81.9068C373.236 81.49 370.081 81.7445 369.632 82.4696ZM81.3713 85.0153C81.3713 86.3804 82.0918 87.2558 82.9716 86.9625C83.8515 86.6692 84.572 85.7939 84.572 85.0153C84.572 84.2367 83.8515 83.3613 82.9716 83.068C82.0918 82.7747 81.3713 83.6501 81.3713 85.0153ZM111.975 87.5803C109.535 91.064 108.847 96.1807 110.82 96.1807C111.458 96.1807 112.74 94.1709 113.668 91.7145C114.595 89.2581 116.416 87.2484 117.716 87.2484C119.015 87.2484 120.078 86.5784 120.078 85.7596C120.078 82.9653 114.297 84.2635 111.975 87.5803ZM76.4495 91.1771C75.26 92.3666 76.6044 94.692 78.4816 94.692C79.2528 94.692 79.8825 93.6871 79.8825 92.4589C79.8825 90.1573 78.1258 89.5008 76.4495 91.1771ZM237.688 91.7011C240.553 92.4485 252.612 93.3953 264.485 93.8032C279.622 94.3243 283.402 94.168 277.139 93.2792C263.474 91.3438 231.399 90.0591 237.688 91.7011ZM117.97 98.6237C116.864 101.507 121.059 108.58 123.121 107.306C125.125 106.067 124.893 100.102 122.758 97.9672C120.339 95.548 119.085 95.7207 117.97 98.6237ZM78.3938 103.624C78.3938 104.443 79.0637 105.113 79.8825 105.113C80.7013 105.113 81.3713 104.443 81.3713 103.624C81.3713 102.806 80.7013 102.136 79.8825 102.136C79.0637 102.136 78.3938 102.806 78.3938 103.624ZM152.333 114.446C153.074 115.646 146.494 121.608 144.395 121.638C143.792 121.647 142.198 117.629 140.852 112.712L138.403 103.77L144.995 108.504C148.62 111.107 151.922 113.78 152.333 114.446ZM84.3487 109.579C84.3487 110.398 85.0186 111.068 85.8374 111.068C86.6562 111.068 87.3262 110.398 87.3262 109.579C87.3262 108.76 86.6562 108.091 85.8374 108.091C85.0186 108.091 84.3487 108.76 84.3487 109.579ZM90.3036 115.534C90.3036 116.353 91.3487 117.023 92.6245 117.023C93.9004 117.023 94.5316 116.353 94.0254 115.534C93.5193 114.715 92.4757 114.045 91.7045 114.045C90.9334 114.045 90.3036 114.715 90.3036 115.534ZM96.2585 121.489C96.2585 122.308 96.9285 122.978 97.7473 122.978C98.5661 122.978 99.236 122.308 99.236 121.489C99.236 120.67 98.5661 120 97.7473 120C96.9285 120 96.2585 120.67 96.2585 121.489ZM69.1905 125.513C62.7071 132.367 62.987 143.223 69.8336 150.484C76.4376 157.485 85.3447 158.852 89.257 153.461C91.4753 150.405 91.5527 149.775 89.7171 149.775C88.4978 149.775 87.088 150.445 86.5818 151.264C85.5576 152.921 78.4668 153.258 74.739 151.828C71.1363 150.445 67.9727 143.256 67.9727 136.451C67.9727 128.188 72.3228 123.816 79.4047 124.965C83.0223 125.553 84.371 125.272 83.9602 124.017C83.6371 123.036 81.0691 122.035 78.2509 121.791C74.2388 121.446 72.2751 122.253 69.1905 125.513ZM87.3262 125.211C87.3262 126.576 88.0467 127.451 88.9266 127.158C89.8064 126.865 90.5269 125.988 90.5269 125.211C90.5269 124.434 89.8064 123.557 88.9266 123.264C88.0467 122.97 87.3262 123.846 87.3262 125.211ZM94.7698 128.933C94.7698 129.751 95.4397 130.421 96.2585 130.421C97.0773 130.421 97.7473 129.751 97.7473 128.933C97.7473 128.114 97.0773 127.444 96.2585 127.444C95.4397 127.444 94.7698 128.114 94.7698 128.933ZM377.768 144.625C376.901 148.066 375.739 152.063 375.185 153.509C374.497 155.3 374.79 155.931 376.108 155.492C377.171 155.137 379.249 151.865 380.727 148.218L383.416 141.587L383.468 147.542C383.535 155.231 377.777 171.479 371.901 180.187C369.367 183.943 362.845 198.223 357.408 211.919C335.631 266.79 311.385 306.286 294.051 315.131C290.886 316.744 282.771 318.811 276.018 319.723C260.58 321.806 210.715 320.453 192.281 317.45C184.912 316.249 176.056 314.794 172.6 314.218C166.988 313.28 165.955 312.433 162.924 306.28C160.103 300.555 159.535 297.005 159.562 285.249C159.59 272.748 160.077 270.155 163.754 262.918C168.364 253.844 177.521 243.6 185.752 238.309L191.134 234.85L213.293 242.025C244.408 252.101 270.042 258.779 273.45 257.697C276.841 256.621 322.965 208.897 340.145 188.689C351.318 175.546 351.949 174.428 351.228 169.058C350.037 160.183 352.119 150.163 356.089 145.653L359.669 141.587L359.715 147.048C359.778 154.304 361.032 157.21 363.661 156.202C367.231 154.831 374.449 143.131 376.476 135.432C378.356 128.282 378.377 128.264 378.858 133.296C379.124 136.086 378.634 141.185 377.768 144.625ZM115.612 136.344C115.612 144.378 123.787 150.198 131.122 147.382C135.388 145.745 133.648 143.546 128.911 144.587C123.982 145.669 118.589 142.339 118.589 138.213C118.589 136.073 122.107 136.232 133.105 138.873C135.02 139.333 136.454 138.983 136.454 138.054C136.454 137.162 134.779 136.086 132.732 135.66C130.685 135.236 127.169 134.521 124.917 134.073C122.664 133.624 119.651 132.909 118.217 132.483C116.129 131.863 115.612 132.628 115.612 136.344ZM54.5742 155.73C54.5742 156.549 55.2441 157.219 56.0629 157.219C56.8817 157.219 57.5516 156.549 57.5516 155.73C57.5516 154.911 56.8817 154.241 56.0629 154.241C55.2441 154.241 54.5742 154.911 54.5742 155.73ZM62.0178 157.219C62.0178 158.037 63.0227 158.707 64.2509 158.707C65.4791 158.707 66.484 158.037 66.484 157.219C66.484 156.4 65.4791 155.73 64.2509 155.73C63.0227 155.73 62.0178 156.4 62.0178 157.219ZM67.9727 160.196C67.9727 161.015 68.6427 161.685 69.4615 161.685C70.2803 161.685 70.9502 161.015 70.9502 160.196C70.9502 159.377 70.2803 158.707 69.4615 158.707C68.6427 158.707 67.9727 159.377 67.9727 160.196ZM54.5742 161.685C54.5742 162.503 55.2441 163.173 56.0629 163.173C56.8817 163.173 57.5516 162.503 57.5516 161.685C57.5516 160.866 56.8817 160.196 56.0629 160.196C55.2441 160.196 54.5742 160.866 54.5742 161.685ZM73.9276 163.173C73.9276 163.992 74.9325 164.662 76.1607 164.662C77.3889 164.662 78.3938 163.992 78.3938 163.173C78.3938 162.355 77.3889 161.685 76.1607 161.685C74.9325 161.685 73.9276 162.355 73.9276 163.173ZM81.3713 163.173C81.3713 163.992 82.0412 164.662 82.86 164.662C83.6788 164.662 84.3487 163.992 84.3487 163.173C84.3487 162.355 83.6788 161.685 82.86 161.685C82.0412 161.685 81.3713 162.355 81.3713 163.173ZM54.86 167.751C55.1533 168.631 56.0287 169.352 56.8073 169.352C57.5859 169.352 58.4613 168.631 58.7545 167.751C59.0478 166.871 58.1724 166.151 56.8073 166.151C55.4421 166.151 54.5667 166.871 54.86 167.751ZM230.244 167.273C230.244 168.065 233.762 169.136 238.06 169.652C249.387 171.013 255.552 170.828 255.552 169.128C255.552 168.28 251.126 167.64 245.253 167.64C239.589 167.64 233.894 167.233 232.599 166.736C231.304 166.239 230.244 166.48 230.244 167.273ZM295.946 199.923C299.522 203.35 305.277 207.747 308.737 209.698L315.028 213.242L308.587 219.563L302.145 225.886L295.496 218.49C288.414 210.613 283.834 199.483 283.844 190.171L283.849 184.76L286.647 189.226C288.187 191.683 292.37 196.496 295.946 199.923ZM131.244 190.87C134.112 193.077 134.062 193.144 129.87 192.683C127.477 192.419 125.244 191.367 124.908 190.343C124.069 187.79 127.629 188.086 131.244 190.87ZM55.2248 193.536C54.4581 196.592 55.0387 197.317 59.2905 198.605C69.1458 201.591 71.4906 201.596 97.4495 198.69C130.111 195.034 149.391 195.37 155.181 199.696C157.409 201.362 160.278 204.299 161.556 206.224C163.823 209.638 163.789 209.692 160.216 208.407C152.997 205.814 112.989 207.28 97.0029 210.725C77.1984 214.993 59.0806 216.273 53.1688 213.824C49.453 212.285 48.6252 211.087 48.652 207.283C48.6833 202.756 53.5753 189.97 55.2739 189.97C55.7399 189.97 55.7175 191.575 55.2248 193.536ZM247.364 209.476L286.071 212.744L290.104 217.362C292.324 219.9 294.165 222.332 294.198 222.764C294.232 223.197 272.318 221.654 245.503 219.334L196.748 215.118L187.245 218.867C177.559 222.685 174.838 222.504 170.912 217.774C169.237 215.755 175.207 212.721 194.514 205.781C195.743 205.339 199.427 205.254 202.702 205.593C205.978 205.931 226.075 207.679 247.364 209.476ZM209.253 219.553L212.824 220.553L208.695 222.435C205.875 223.718 201.666 223.985 195.445 223.272C186.396 222.236 186.361 222.213 190.793 220.309C195.579 218.253 203.456 217.93 209.253 219.553ZM430.387 224.993C463.907 227.838 492.882 230.166 494.774 230.166C500.166 230.166 498.901 231.941 488.934 238.354C483.844 241.629 462.642 255.923 441.817 270.115C420.994 284.308 402.408 296.511 400.514 297.23C398.297 298.073 384.077 297.144 360.561 294.616L324.05 290.693L327.581 284.622C329.523 281.282 332.987 274.865 335.278 270.362C337.571 265.858 339.585 261.971 339.756 261.726C339.926 261.478 353.14 262.736 369.121 264.521L398.175 267.767L421.477 253.213C434.292 245.208 444.239 238.189 443.583 237.613C442.925 237.035 423.457 234.994 400.319 233.074C377.181 231.153 357.479 229.106 356.536 228.523C355.251 227.729 355.284 226.349 356.664 223.017C358.321 219.019 359.056 218.633 363.973 219.194C366.979 219.538 396.865 222.146 430.387 224.993ZM258.53 223.458C273.678 224.7 289.296 226.117 293.235 226.605C300.065 227.452 300.284 227.62 297.933 230.218C296.577 231.717 294.694 232.685 293.747 232.371C292.8 232.057 275.613 230.392 255.552 228.674C235.492 226.955 217.404 225.194 215.358 224.759L211.638 223.969L215.358 221.89C217.588 220.644 221.463 220.09 225.033 220.507C228.309 220.888 243.382 222.216 258.53 223.458ZM196.743 226.318C197.56 226.523 196.739 227.488 194.916 228.462C192.283 229.871 190.531 229.785 186.361 228.043C183.476 226.837 181.116 225.564 181.116 225.215C181.116 224.621 193.438 225.49 196.743 226.318ZM248.109 230.91C269.807 232.938 288.892 234.605 290.52 234.616C292.884 234.629 291.984 236.128 286.053 242.058L278.628 249.485L250.342 245.738C230.775 243.145 217.734 240.563 208.037 237.361L194.017 232.733L199.104 230.023C201.902 228.533 205.196 227.293 206.424 227.268C207.652 227.244 226.41 228.883 248.109 230.91ZM380.605 234.348L391.771 235.377L385.997 238.789C380.392 242.101 379.797 242.149 365.46 240.41C353.777 238.994 350.865 238.18 351.508 236.505C351.955 235.341 352.319 233.784 352.319 233.045C352.319 232.305 356.171 232.064 360.88 232.511C365.589 232.956 374.464 233.782 380.605 234.348ZM411.645 237.4C414.981 238.338 414.874 238.534 409.345 241.643C404.543 244.342 402.088 244.751 395.053 244.025C390.382 243.542 386.562 242.74 386.563 242.24C386.565 241.741 388.406 240.221 390.657 238.862C394.818 236.35 405.306 235.621 411.645 237.4ZM436.869 239.867C437.108 240.06 434.764 241.741 431.658 243.6C427.701 245.972 424.036 246.893 419.407 246.681C409.996 246.247 409.199 245.097 415.628 241.217C420.275 238.412 422.623 237.958 428.856 238.661C433.023 239.131 436.629 239.673 436.869 239.867ZM448.512 242.863C443.58 247.796 449.908 251.768 455.817 247.447C458.224 245.688 458.353 245.016 456.664 242.981C454.169 239.975 451.44 239.935 448.512 242.863ZM373.604 244.581C374.271 244.995 369.483 248.614 362.964 252.627C353.129 258.678 350.314 259.763 346.446 258.989C343.881 258.476 341.976 257.641 342.213 257.131C342.449 256.621 343.935 252.95 345.515 248.972L348.386 241.738L360.388 242.785C366.989 243.361 372.935 244.169 373.604 244.581ZM398.201 247.337C398.461 247.559 393.197 250.819 386.502 254.584C377.425 259.688 372.761 261.423 368.163 261.407C356.912 261.365 357.072 259.414 368.925 252.041C379.504 245.463 380.153 245.269 388.793 246.09C393.706 246.555 397.939 247.117 398.201 247.337ZM264.112 250.359C274.19 251.324 276.901 252.577 273.481 254.69C272.047 255.577 248.007 249.983 246.62 248.44C246.211 247.985 247.55 247.998 249.597 248.469C251.644 248.94 258.175 249.79 264.112 250.359ZM414.021 248.996L421.055 249.959L409.503 257.328L397.952 264.699L388.417 263.677C383.173 263.116 379.112 262.425 379.393 262.144C381.013 260.526 403.957 248.052 405.333 248.041C406.243 248.035 410.152 248.464 414.021 248.996ZM161.344 313.457C163.445 313.507 164.372 314.248 163.894 315.495C162.498 319.134 130.499 313.742 130.499 309.868C130.499 306.615 131.797 306.629 144.979 310.02C152.163 311.869 159.526 313.416 161.344 313.457ZM438.27 313.634C423.939 317.093 410.633 328.364 406.621 340.444C403.879 348.701 404.773 353.629 409.886 358.427C413.211 361.549 414.971 361.911 426.507 361.848C442.498 361.764 452.902 357.5 463.855 346.547C472.433 337.969 474.507 331.368 470.846 324.289C466.673 316.22 450.063 310.788 438.27 313.634ZM453.553 316.441C457.086 317.504 456.998 317.617 451.822 318.666C445.837 319.88 439.618 318.585 440.964 316.405C441.954 314.805 448.174 314.823 453.553 316.441ZM442.83 321.851C451.997 326.42 456.116 331.682 457.869 341.063C459.15 347.917 459.121 347.99 453.523 351.694C442.618 358.91 423.135 362.042 414.273 358.003C406.065 354.263 406.037 342.584 414.209 331.871C418.149 326.704 430.226 318.001 433.454 318.001C434.362 318.001 438.581 319.734 442.83 321.851ZM464.684 322.722C471.435 325.799 470.995 336.211 463.838 342.689C461.125 345.145 460.997 345.114 460.997 341.992C460.997 338.06 456.174 328.239 452.917 325.535C451.629 324.467 450.575 323.003 450.575 322.286C450.575 320.386 460.21 320.684 464.684 322.722Z" fill="#4F210E"/>
</svg>
