<svg id="visual" viewBox="0 0 540 960" width="540" height="960" xmlns="http://www.w3.org/2000/svg" xmlns:xlink="http://www.w3.org/1999/xlink" version="1.1"><rect x="0" y="0" width="540" height="960" fill="#F6F1E9"></rect><path d="M471 0L466.5 22.8C462 45.7 453 91.3 455.8 137C458.7 182.7 473.3 228.3 457.3 274C441.3 319.7 394.7 365.3 386.8 411.2C379 457 410 503 409.2 548.8C408.3 594.7 375.7 640.3 361.7 686C347.7 731.7 352.3 777.3 378.3 823C404.3 868.7 451.7 914.3 475.3 937.2L499 960L0 960L0 937.2C0 914.3 0 868.7 0 823C0 777.3 0 731.7 0 686C0 640.3 0 594.7 0 548.8C0 503 0 457 0 411.2C0 365.3 0 319.7 0 274C0 228.3 0 182.7 0 137C0 91.3 0 45.7 0 22.8L0 0Z" fill="#ff870d"></path><path d="M367 0L373.5 22.8C380 45.7 393 91.3 375.8 137C358.7 182.7 311.3 228.3 296.7 274C282 319.7 300 365.3 322 411.2C344 457 370 503 368.2 548.8C366.3 594.7 336.7 640.3 313.8 686C291 731.7 275 777.3 274.5 823C274 868.7 289 914.3 296.5 937.2L304 960L0 960L0 937.2C0 914.3 0 868.7 0 823C0 777.3 0 731.7 0 686C0 640.3 0 594.7 0 548.8C0 503 0 457 0 411.2C0 365.3 0 319.7 0 274C0 228.3 0 182.7 0 137C0 91.3 0 45.7 0 22.8L0 0Z" fill="#ff9c10"></path><path d="M284 0L276.5 22.8C269 45.7 254 91.3 256.8 137C259.7 182.7 280.3 228.3 270.7 274C261 319.7 221 365.3 210.8 411.2C200.7 457 220.3 503 224.5 548.8C228.7 594.7 217.3 640.3 222.3 686C227.3 731.7 248.7 777.3 252.5 823C256.3 868.7 242.7 914.3 235.8 937.2L229 960L0 960L0 937.2C0 914.3 0 868.7 0 823C0 777.3 0 731.7 0 686C0 640.3 0 594.7 0 548.8C0 503 0 457 0 411.2C0 365.3 0 319.7 0 274C0 228.3 0 182.7 0 137C0 91.3 0 45.7 0 22.8L0 0Z" fill="#ffb11b"></path><path d="M125 0L122.2 22.8C119.3 45.7 113.7 91.3 125.2 137C136.7 182.7 165.3 228.3 177.8 274C190.3 319.7 186.7 365.3 189.3 411.2C192 457 201 503 204.2 548.8C207.3 594.7 204.7 640.3 192.2 686C179.7 731.7 157.3 777.3 151.3 823C145.3 868.7 155.7 914.3 160.8 937.2L166 960L0 960L0 937.2C0 914.3 0 868.7 0 823C0 777.3 0 731.7 0 686C0 640.3 0 594.7 0 548.8C0 503 0 457 0 411.2C0 365.3 0 319.7 0 274C0 228.3 0 182.7 0 137C0 91.3 0 45.7 0 22.8L0 0Z" fill="#ffc52b"></path><path d="M45 0L58.2 22.8C71.3 45.7 97.7 91.3 106.2 137C114.7 182.7 105.3 228.3 96.7 274C88 319.7 80 365.3 84.3 411.2C88.7 457 105.3 503 105 548.8C104.7 594.7 87.3 640.3 79.3 686C71.3 731.7 72.7 777.3 85 823C97.3 868.7 120.7 914.3 132.3 937.2L144 960L0 960L0 937.2C0 914.3 0 868.7 0 823C0 777.3 0 731.7 0 686C0 640.3 0 594.7 0 548.8C0 503 0 457 0 411.2C0 365.3 0 319.7 0 274C0 228.3 0 182.7 0 137C0 91.3 0 45.7 0 22.8L0 0Z" fill="#ffd93d"></path></svg>