<svg id="visual" viewBox="0 0 900 675" width="900" height="675" xmlns="http://www.w3.org/2000/svg" xmlns:xlink="http://www.w3.org/1999/xlink" version="1.1"><rect x="0" y="0" width="900" height="675" fill="#F6F1E9"></rect><path d="M390 0L395.8 16C401.7 32 413.3 64 423.8 96.2C434.3 128.3 443.7 160.7 441.7 192.8C439.7 225 426.3 257 427.7 289.2C429 321.3 445 353.7 436.8 385.8C428.7 418 396.3 450 385.7 482.2C375 514.3 386 546.7 396.5 578.8C407 611 417 643 422 659L427 675L0 675L0 659C0 643 0 611 0 578.8C0 546.7 0 514.3 0 482.2C0 450 0 418 0 385.8C0 353.7 0 321.3 0 289.2C0 257 0 225 0 192.8C0 160.7 0 128.3 0 96.2C0 64 0 32 0 16L0 0Z" fill="#ff870d"></path><path d="M331 0L316.8 16C302.7 32 274.3 64 280.3 96.2C286.3 128.3 326.7 160.7 336.3 192.8C346 225 325 257 318.2 289.2C311.3 321.3 318.7 353.7 329.8 385.8C341 418 356 450 349.2 482.2C342.3 514.3 313.7 546.7 308 578.8C302.3 611 319.7 643 328.3 659L337 675L0 675L0 659C0 643 0 611 0 578.8C0 546.7 0 514.3 0 482.2C0 450 0 418 0 385.8C0 353.7 0 321.3 0 289.2C0 257 0 225 0 192.8C0 160.7 0 128.3 0 96.2C0 64 0 32 0 16L0 0Z" fill="#ffa313"></path><path d="M196 0L189.3 16C182.7 32 169.3 64 182.7 96.2C196 128.3 236 160.7 244.3 192.8C252.7 225 229.3 257 211.7 289.2C194 321.3 182 353.7 176.5 385.8C171 418 172 450 187.8 482.2C203.7 514.3 234.3 546.7 245 578.8C255.7 611 246.3 643 241.7 659L237 675L0 675L0 659C0 643 0 611 0 578.8C0 546.7 0 514.3 0 482.2C0 450 0 418 0 385.8C0 353.7 0 321.3 0 289.2C0 257 0 225 0 192.8C0 160.7 0 128.3 0 96.2C0 64 0 32 0 16L0 0Z" fill="#ffbf25"></path><path d="M117 0L117 16C117 32 117 64 115.3 96.2C113.7 128.3 110.3 160.7 99.7 192.8C89 225 71 257 76.3 289.2C81.7 321.3 110.3 353.7 117.2 385.8C124 418 109 450 96.5 482.2C84 514.3 74 546.7 68.7 578.8C63.3 611 62.7 643 62.3 659L62 675L0 675L0 659C0 643 0 611 0 578.8C0 546.7 0 514.3 0 482.2C0 450 0 418 0 385.8C0 353.7 0 321.3 0 289.2C0 257 0 225 0 192.8C0 160.7 0 128.3 0 96.2C0 64 0 32 0 16L0 0Z" fill="#ffd93d"></path></svg>