<svg id="visual" viewBox="0 0 675 900" width="675" height="900" xmlns="http://www.w3.org/2000/svg" xmlns:xlink="http://www.w3.org/1999/xlink" version="1.1"><rect x="0" y="0" width="675" height="900" fill="#F6F1E9"></rect><defs><linearGradient id="grad1_0" x1="0%" y1="0%" x2="100%" y2="100%"><stop offset="30%" stop-color="#ff870d" stop-opacity="1"></stop><stop offset="70%" stop-color="#ff870d" stop-opacity="1"></stop></linearGradient></defs><defs><linearGradient id="grad1_1" x1="0%" y1="0%" x2="100%" y2="100%"><stop offset="30%" stop-color="#ff870d" stop-opacity="1"></stop><stop offset="70%" stop-color="#fac17d" stop-opacity="1"></stop></linearGradient></defs><defs><linearGradient id="grad1_2" x1="0%" y1="0%" x2="100%" y2="100%"><stop offset="30%" stop-color="#f6f1e9" stop-opacity="1"></stop><stop offset="70%" stop-color="#fac17d" stop-opacity="1"></stop></linearGradient></defs><defs><linearGradient id="grad2_0" x1="0%" y1="0%" x2="100%" y2="100%"><stop offset="30%" stop-color="#ff870d" stop-opacity="1"></stop><stop offset="70%" stop-color="#ff870d" stop-opacity="1"></stop></linearGradient></defs><defs><linearGradient id="grad2_1" x1="0%" y1="0%" x2="100%" y2="100%"><stop offset="30%" stop-color="#fac17d" stop-opacity="1"></stop><stop offset="70%" stop-color="#ff870d" stop-opacity="1"></stop></linearGradient></defs><defs><linearGradient id="grad2_2" x1="0%" y1="0%" x2="100%" y2="100%"><stop offset="30%" stop-color="#fac17d" stop-opacity="1"></stop><stop offset="70%" stop-color="#f6f1e9" stop-opacity="1"></stop></linearGradient></defs><g transform="translate(675, 0)"><path d="M0 478.1C-58.2 485.7 -116.5 493.3 -147.7 454.7C-179 416.1 -183.3 331.4 -212.2 292.1C-241.1 252.7 -294.6 258.8 -329.3 239.2C-363.9 219.7 -379.7 174.5 -401.3 130.4C-423 86.3 -450.6 43.1 -478.1 0L0 0Z" fill="#f7dab2"></path><path d="M0 318.8C-38.8 323.8 -77.7 328.9 -98.5 303.1C-119.3 277.4 -122.2 220.9 -141.5 194.7C-160.7 168.5 -196.4 172.5 -219.5 159.5C-242.6 146.5 -253.1 116.4 -267.6 86.9C-282 57.5 -300.4 28.8 -318.7 0L0 0Z" fill="#fca64a"></path><path d="M0 159.4C-19.4 161.9 -38.8 164.4 -49.2 151.6C-59.7 138.7 -61.1 110.5 -70.7 97.4C-80.4 84.2 -98.2 86.3 -109.8 79.7C-121.3 73.2 -126.6 58.2 -133.8 43.5C-141 28.8 -150.2 14.4 -159.4 0L0 0Z" fill="#ff870d"></path></g><g transform="translate(0, 900)"><path d="M0 -478.1C34.7 -424.5 69.5 -370.8 117.7 -362.4C166 -353.9 227.7 -390.5 279.8 -385.1C331.8 -379.7 374.1 -332.2 386.8 -281C399.5 -229.9 382.5 -175.1 392.8 -127.6C403.1 -80.2 440.6 -40.1 478.1 0L0 0Z" fill="#f7dab2"></path><path d="M0 -318.7C23.2 -283 46.3 -247.2 78.5 -241.6C110.7 -235.9 151.8 -260.3 186.5 -256.7C221.2 -253.1 249.4 -221.5 257.9 -187.4C266.3 -153.3 255 -116.7 261.9 -85.1C268.7 -53.4 293.7 -26.7 318.8 0L0 0Z" fill="#fca64a"></path><path d="M0 -159.4C11.6 -141.5 23.2 -123.6 39.2 -120.8C55.3 -118 75.9 -130.2 93.3 -128.4C110.6 -126.6 124.7 -110.7 128.9 -93.7C133.2 -76.6 127.5 -58.4 130.9 -42.5C134.4 -26.7 146.9 -13.4 159.4 0L0 0Z" fill="#ff870d"></path></g></svg>