<svg width="1038" height="1076" viewBox="0 0 1038 1076" fill="none" xmlns="http://www.w3.org/2000/svg">
<path d="M353.202 821.784C362.644 818.442 372.319 815.789 382.148 813.854L383.338 818.216C383.471 818.73 383.784 819.178 384.221 819.48C384.658 819.783 385.189 819.915 385.717 819.858L424.633 815.326C435.339 790.912 454.995 753.921 455.279 753.355C454.995 744.121 455.279 736.361 455.279 727.524C433.016 735.794 391.835 751.485 370.309 761.512C369.822 761.824 369.446 762.286 369.233 762.824C369.02 763.363 368.98 763.953 369.12 764.514C369.12 764.514 369.516 765.93 370.026 767.97C359.49 767.97 327.937 766.44 320.347 773.634C319.166 775.277 318.586 777.278 318.704 779.299C318.251 787.116 322.159 847.842 328.39 865.686C331.619 875.032 338.417 874.013 343.062 865.063C348.438 851.586 351.89 837.415 353.315 822.974C353.315 822.237 353.145 822.294 353.202 821.784ZM346.687 771.085C353.598 770.519 355.751 770.632 370.592 770.179C373.255 780.262 378.75 800.995 381.582 811.588C371.587 813.136 361.723 815.425 352.069 818.442C349.06 802.817 347.261 786.984 346.687 771.085Z" fill="#4F210E"/>
<path d="M874.58 275.31C875.996 273.327 874.183 270.778 872.654 268.796C876.988 264.34 881.794 260.37 886.986 256.956C895.752 252.588 903.762 246.853 910.721 239.962C913.61 236.96 919.048 230.785 917.009 227.16C914.969 223.535 911.344 223.308 906.416 225.404C908.55 223.163 910.296 220.577 911.57 217.757C913.157 213.338 909.418 209.769 901.317 213.055C904.263 208.353 904.943 203.425 899.958 201.046C895.936 199.12 890.045 203.708 886.646 206.71C879.971 212.542 873.707 218.826 867.896 225.517C864.327 218.04 858.662 209.43 851.581 212.149C844.5 214.868 849.995 227.047 853.621 233.674L840.762 242.568C838.817 241.518 836.622 241.029 834.417 241.152C819.802 243.644 752.676 294.74 745.878 294.74C740.667 294.74 666.232 259.052 601.881 248.743C601.759 248.356 601.527 248.014 601.216 247.754C600.904 247.493 600.527 247.325 600.125 247.27C588.9 245.354 577.523 244.501 566.137 244.721C565.793 244.744 565.457 244.842 565.156 245.008C564.849 245.175 564.589 245.406 564.381 245.684H559.623C558.49 241.095 554.298 230.502 552.825 226.424C556.677 223.081 562.002 221.382 564.778 216.001C569.876 206.031 569.649 188.697 568.233 177.594C574.634 172.722 574.804 164.905 573.331 156.918C572.765 153.689 571.009 146.381 568.29 144.569C566.76 143.549 563.531 144.569 560.756 145.588C557.98 139.131 557.98 142.076 559.113 139.471C559.642 138.27 559.948 136.984 560.019 135.675C563.022 136.582 569.253 130.577 567.1 122.646C565.972 119.808 564.589 117.077 562.965 114.489C563.758 112.563 565.457 110.241 560.133 103.16C557.839 100.686 554.86 98.9504 551.579 98.1749H548.973C547.095 95.4466 544.333 93.4464 541.156 92.5102C536.36 91.2866 531.272 91.9993 526.994 94.4928C525.861 95.3425 524.955 96.4755 523.822 97.2685C521.258 95.7133 518.323 94.8914 515.325 94.8914C512.328 94.8914 509.391 95.7133 506.828 97.2685C505.327 97.8566 503.963 98.7424 502.815 99.8712C501.669 101.001 500.757 102.35 500.143 103.84C497.368 102.882 494.422 102.513 491.496 102.757C488.573 103.001 485.727 103.852 483.149 105.256C473.364 110.562 466.042 119.489 462.757 130.124C462.667 131.727 462.667 133.335 462.757 134.939H462.133C453.636 133.693 442.817 153.859 451.484 169.55C452.503 171.419 453.806 173.175 455.053 175.215C458.678 180.879 457.262 182.579 465.362 189.49C467.741 191.529 468.138 191.359 469.611 192.605C471.084 193.852 470.517 193.228 471.367 196.401C471.829 198.269 472.66 200.028 473.808 201.574C474.955 203.12 476.399 204.423 478.051 205.408C478.656 210.949 481.016 216.15 484.792 220.249C485.987 221.588 487.384 222.733 488.927 223.648C489.344 223.883 489.81 224.019 490.287 224.044C491.986 234.581 494.082 248.289 494.989 254.124L489.947 256.843C483.352 259.497 476.938 262.582 470.744 266.076C470.258 266.413 469.914 266.917 469.781 267.493C463.776 270.665 458.111 273.667 454.883 275.593C409.906 302.274 282.166 478.163 280.863 486.207C280.72 486.669 280.72 487.16 280.863 487.623C282.694 490.545 284.925 493.194 287.491 495.497C286.701 496.942 285.75 498.287 284.658 499.519C273.329 506.939 256.336 517.986 247.216 527.842C246.575 528.414 246.095 529.141 245.823 529.953C245.55 530.764 245.494 531.633 245.66 532.473C245.825 533.313 246.207 534.097 246.769 534.749C247.33 535.396 248.05 535.886 248.858 536.169C250.557 536.736 250.841 536.566 261.887 530.505C258.851 533.167 256.368 536.401 254.58 540.021C253.843 543.137 256.676 544.95 260.245 544.383C262.252 543.855 264.164 543.014 265.909 541.891C264.887 543.467 264.344 545.309 264.344 547.188C264.344 549.066 264.887 550.907 265.909 552.484C271.574 559.621 286.416 537.132 294.233 531.581C297.405 535.603 301.709 545.006 308.563 542.514C314.511 540.304 307.997 527.219 308.563 523.424C310.868 521.21 313.33 519.166 315.929 517.306C320.298 520.544 325.294 522.843 330.599 524.047C339.946 524.047 437.492 425.594 444.913 417.72C442.25 442.758 428.825 550.218 431.657 571.12C432.96 580.58 455.676 581.94 465.249 582.45C462.36 650.426 460.434 753.41 459.924 754.487C444.913 786.832 440.834 795.669 435.793 805.469C426.616 823.03 387.982 887.834 383.621 902.562C382.998 904.884 382.941 905.791 385.377 910.096C378.078 917.772 371.303 925.929 365.098 934.511C361.983 940.175 375.35 992.97 384.81 1011.66C386.963 1015.86 390.475 1022.31 395.177 1022.15C409.338 1021.63 409.282 970.765 408.885 956.546C408.883 956.108 408.722 955.687 408.432 955.357C411 951.524 413.799 947.856 416.816 944.367C418.617 945.609 420.511 946.704 422.481 947.653C424.407 948.503 426.559 947.03 428.145 945.727C447.009 930.885 548.747 804.109 570.556 744.29C580.469 716.986 593.668 679.26 597.406 652.522C599.692 635.618 599.904 618.497 598.029 601.54C598.029 601.299 598.124 601.068 598.294 600.898C598.464 600.728 598.695 600.633 598.936 600.633C599.177 600.633 599.409 600.728 599.578 600.898C599.748 601.068 599.842 601.299 599.842 601.54C602.68 618.591 603.232 635.948 601.485 653.145C597.293 690.249 568.007 767.572 552.372 796.009C565.854 793.516 593.271 788.078 606.527 784.113C650.711 770.688 691.497 730.638 695.066 685.661C696.222 664.471 696.222 643.237 695.066 622.046C694.684 592.793 690.883 563.685 683.736 535.32C695.745 528.805 706.735 521.158 710.304 514.134C717.951 499.122 697.728 412.736 693.31 388.491C717.498 391.153 758.68 395.968 777.884 380.957C799.863 363.283 847.333 313.547 874.58 275.31ZM405.826 953.431C395.63 947.256 381.355 932.585 379.202 921.085C381.525 918.14 383.961 915.421 386.226 912.362C393.904 924.078 403.476 934.436 414.55 943.008C411.439 946.308 408.526 949.787 405.826 953.431ZM856.17 235.261C856.462 235.074 856.675 234.782 856.756 234.445C856.84 234.107 856.793 233.751 856.623 233.448C854.64 229.766 848.692 216.794 852.828 215.321C855.207 214.414 857.303 215.887 859.059 217.87C861.741 221.272 863.826 225.102 865.233 229.199C865.337 229.532 865.531 229.831 865.796 230.062C866.055 230.294 866.375 230.45 866.715 230.515C867.06 230.578 867.415 230.548 867.745 230.426C868.071 230.304 868.358 230.095 868.575 229.822C874.24 223.535 887.495 209.203 894.973 205.351C900.638 202.405 901.997 207.843 888.119 220.532C884.932 222.963 881.869 225.553 878.942 228.293C878.781 228.515 878.692 228.783 878.692 229.058C878.692 229.332 878.781 229.6 878.942 229.822C878.942 231.295 880.131 232.938 882.171 231.409C887.095 227.086 892.301 223.094 897.749 219.456C900.529 217.481 903.762 216.233 907.152 215.831C905.453 221.042 889.648 235.204 888.289 236.79C887.859 237.177 887.594 237.717 887.557 238.295C887.524 238.873 887.713 239.442 888.091 239.88C888.473 240.318 889.006 240.589 889.582 240.637C890.163 240.684 890.734 240.503 891.178 240.132C897.465 236.054 908.455 226.537 912.25 227.953C916.046 229.369 904.773 239.906 901.941 242.398C885.683 256.503 889.875 247.44 871.068 266.586C862.883 257.619 853.484 249.839 843.141 243.474L856.17 235.261ZM610.039 506.203C609.076 498.386 607.886 489.945 606.413 481.165L608.849 477.936C620.178 463.378 623.577 440.209 622.501 422.026C628.562 448.593 633.377 474.707 637.059 500.652L610.039 506.203ZM525.805 312.244C510.906 300.914 486.945 281.371 473.01 268.002L495.668 256.673C516.477 276.108 534.287 298.52 548.52 323.177C570.287 363.16 586.431 405.954 596.5 450.349L515.721 336.092L526.258 314.226C526.4 313.89 526.428 313.518 526.347 313.164C526.267 312.807 526.079 312.487 525.805 312.244ZM564.098 248.006C564.438 248.629 568.346 256.956 574.294 271.515C574.294 272.138 573.218 286.299 572.708 291.284C565.477 288.419 558.66 284.609 552.429 279.955C553.675 275.027 559.283 252.651 559.679 247.61L564.098 248.006ZM543.988 308.845C544.385 307.825 544.781 306.466 545.234 304.88L549.03 306.862C551.182 308.279 550.333 303.973 552.259 316.436C552.259 318.532 552.825 320.854 552.938 323.403C550.333 318.702 547.104 313.66 544.045 308.845H543.988ZM540.816 304.087C530.115 288.907 517.931 274.828 504.449 262.055L547.104 280.578C545.461 284.487 543.082 296.439 540.873 304.087H540.816ZM584.378 337.282C578.713 321.817 574.351 304.54 572.198 300.008C572.326 298.595 572.326 297.173 572.198 295.76C573.02 296.064 573.874 296.255 574.748 296.326C575.295 296.332 575.824 296.141 576.24 295.786C576.659 295.433 576.933 294.941 577.013 294.4C577.467 292.531 578.203 283.071 578.316 280.975C594.796 322.579 608.551 365.212 619.499 408.6C587.493 340.511 592.421 360.224 584.434 337.282H584.378ZM631.225 445.421C618.309 383.506 595.594 306.296 569.763 249.082C579.252 249.088 588.721 249.846 598.086 251.348C602.901 294.4 598.879 292.927 602.108 294.627C605.337 296.326 624.767 304.143 627.656 305.333C627.373 309.695 631.451 434.431 631.281 445.421H631.225ZM566.024 148.194C568.979 154.639 570.018 161.795 569.026 168.814C568.564 170.601 567.619 172.224 566.289 173.503C564.957 174.783 563.301 175.669 561.497 176.062C559.699 176.456 557.819 176.342 556.078 175.732C554.336 175.122 552.801 174.041 551.636 172.609C548.931 166.915 546.901 160.927 545.574 154.765C547.104 152.783 563.418 148.817 566.024 148.194ZM488.078 204.841C486.011 203.899 483.891 203.068 481.733 202.349C480.284 201.753 478.996 200.835 477.957 199.663C476.918 198.49 476.163 197.097 475.748 195.587C475.332 194.078 475.266 192.494 475.559 190.955C475.851 189.418 476.489 187.967 477.428 186.714C480.997 183.712 484.226 183.882 487.171 188.357C489.041 191.812 488.984 192.096 489.834 192.435C490.08 192.543 490.344 192.597 490.608 192.594C490.873 192.591 491.137 192.531 491.378 192.419C491.619 192.307 491.836 192.143 492.006 191.941C492.18 191.739 492.308 191.502 492.383 191.246C493.223 187.701 493.355 184.024 492.779 180.426C492.1 176.518 491.986 159.184 492.1 158.617C493.757 159.49 495.612 159.901 497.481 159.807C507.734 159.41 509.773 154.142 513.852 149.837C518.554 150.29 519.517 152.556 524.842 149.837C527.334 148.419 529.624 146.666 531.639 144.625C533.268 145.292 534.84 146.088 536.341 147.005C539.736 148.637 543.564 149.139 547.264 148.435C550.965 147.732 554.345 145.86 556.904 143.096C557.527 144.286 558.093 145.475 558.603 146.721C553.397 148.337 548.496 150.806 544.102 154.029C543.139 155.218 544.555 161.676 544.895 163.206C540.151 163.803 535.557 165.282 531.356 167.567C530.506 164.622 528.637 159.127 525.691 157.598C524.805 157.327 523.86 157.327 522.972 157.598C517.874 158.391 499.577 163.885 497.368 166.888C495.442 168.984 500.937 185.185 502.636 187.847C509.15 197.93 528.24 194.985 531.809 183.202C532.692 179.248 532.692 175.147 531.809 171.193C533.452 171.193 538.38 169.437 538.947 169.267C542.855 178.047 543.988 178.557 548.52 188.017C547.897 188.527 546.877 189.377 546.028 189.943C542.006 192.605 541.156 192.152 541.382 193.285C541.448 193.51 541.595 193.703 541.793 193.828C541.991 193.954 542.228 194.002 542.459 193.965C544.838 193.625 547.161 192.978 549.37 192.039C550.692 191.546 551.782 190.575 552.429 189.32C554.015 185.751 545.235 172.326 541.779 168.304C542.459 168.304 544.045 167.171 545.234 166.548C546.821 172.892 547.897 177.877 554.015 180.37C555.785 181.037 557.669 181.341 559.557 181.264C561.445 181.185 563.296 180.727 565.004 179.916C565.911 189.886 565.741 206.087 560.982 214.924C558.547 219.513 552.542 221.269 548.69 225.064C547.557 226.14 548.293 227.67 548.69 229.313C554.978 246.817 555.091 246.76 554.751 249.026C553.085 258.43 550.758 267.706 547.784 276.783C546.367 276.16 530.45 267.719 499.294 255.597C498.331 249.196 493.176 215.038 491.533 208.75C491.646 206.541 491.363 206.031 488.078 204.558V204.841ZM527.731 181.729C525.918 187.904 517.364 190.566 511.246 188.867C505.128 187.167 504.732 184.052 501.843 176.688C500.489 173.875 499.553 170.878 499.067 167.794C500.937 165.755 521.386 161.563 523.935 161.166C527.509 167.283 528.854 174.451 527.731 181.446V181.729ZM306.072 521.838C303.919 523.933 306.807 530.788 307.261 536.736C307.261 537.246 307.261 539.455 306.921 539.625C303.805 540.644 300.916 535.943 299.16 533.11C297.404 530.278 295.648 526.426 292.872 527.446C287.208 530.108 274.065 547.555 268.911 549.368C266.305 544.383 281.204 530.165 281.714 529.372C281.932 529.008 282.046 528.588 282.044 528.168C282.042 527.743 281.924 527.323 281.702 526.965C281.48 526.601 281.163 526.309 280.786 526.11C280.408 525.916 279.985 525.832 279.561 525.86C278.542 525.86 277.861 526.766 276.275 528.182C271.45 532.889 265.929 536.825 259.904 539.851C265.367 533.583 271.212 527.663 277.408 522.121C277.715 521.805 277.93 521.413 278.032 520.988C278.032 520.988 276.842 517.986 274.52 519.175C271.234 520.988 255.259 530.221 250.218 532.6C249.538 532.147 249.935 531.468 250.218 530.788C258.204 520.988 275.766 509.092 286.528 501.558C287.792 500.255 288.843 498.768 289.643 497.139C297.098 504.074 305.049 510.457 313.435 516.23C310.852 517.925 308.391 519.798 306.072 521.838ZM437.888 573.33C436.642 572.537 435.736 571.8 435.566 570.781C432.45 547.669 449.784 416.701 449.501 411.546C449.501 411.243 449.44 410.944 449.322 410.665C449.209 410.387 449.034 410.135 448.817 409.924C448.6 409.713 448.344 409.547 448.061 409.436C447.783 409.325 447.481 409.273 447.179 409.28C444.29 409.28 449.388 409.28 377.221 478.389C372.462 482.864 336.094 517.646 330.033 519.968C321.706 519.345 290.38 494.364 285.282 486.49C295.138 466.55 414.663 302.501 456.015 277.406C459.188 275.48 464.626 272.478 470.574 269.305C472.633 271.246 474.846 273.007 477.201 274.574C490.344 287.036 508.641 302.557 522.519 314.226L511.699 335.696C511.535 335.98 511.449 336.302 511.449 336.631C511.449 336.958 511.535 337.281 511.699 337.565C599.559 463.604 598.256 462.188 598.823 462.188C604.454 491.314 607.957 520.809 609.302 550.444C609.302 558.431 609.302 557.752 609.642 557.185C609.982 556.619 609.642 557.582 609.642 557.582C595.934 572.537 460.264 586.472 437.888 573.33ZM751.033 385.658C725.372 389.227 696.369 383.902 690.761 383.676C687.645 368.575 681.433 354.283 672.52 341.7C672.383 341.517 672.185 341.391 671.959 341.35C671.736 341.308 671.506 341.352 671.312 341.474C671.118 341.595 670.976 341.786 670.916 342.006C670.859 342.226 670.883 342.461 670.991 342.663C674.276 349.348 685.266 378.181 687.985 385.205C687.135 387.924 713.589 497.309 706.112 512.038C699.428 525.35 660.511 542.117 646.463 546.932C643.687 515.394 639.146 484.04 632.867 453.011C634.793 436.697 632.301 339.718 631.564 303.86C631.541 303.444 631.404 303.041 631.164 302.701C630.923 302.359 630.592 302.095 630.205 301.934L604.77 291.228C604.657 277.766 603.803 264.32 602.221 250.952C665.723 261.941 739.704 298.252 745.878 298.309C754.828 298.309 821.332 247.326 835.097 245.287C841.215 244.324 867.499 267.266 870.558 273.611C843.707 311.111 796.52 360.394 774.655 377.444C767.612 382.154 759.479 384.982 751.033 385.658Z" fill="#4F210E"/>
<path d="M521.896 170.4C521.825 170.028 521.684 169.674 521.476 169.358C521.268 169.04 520.999 168.768 520.688 168.554C520.372 168.342 520.022 168.193 519.649 168.116C519.281 168.038 518.899 168.035 518.525 168.106C518.152 168.176 517.799 168.32 517.483 168.528C517.166 168.736 516.893 169.002 516.68 169.315C516.467 169.629 516.316 169.981 516.241 170.352C516.166 170.722 516.16 171.104 516.231 171.476C517.364 177.141 517.591 178.444 520.083 178.444C520.555 178.445 521.018 178.33 521.434 178.107C521.849 177.884 522.203 177.561 522.458 177.167C522.717 176.773 522.874 176.321 522.916 175.851C522.954 175.382 522.878 174.91 522.689 174.479C522.519 173.572 522.01 170.91 521.896 170.4ZM539.23 207.9C542.912 208.977 546.424 207.221 546.311 206.314C546.198 205.408 546.311 205.861 541.326 203.992C537.984 202.745 534.302 198.327 532.999 199.007C531.696 199.686 533.679 203.312 534.132 203.992C535.345 205.83 537.139 207.207 539.23 207.9ZM642.837 154.086C635.417 185.185 629.979 211.582 629.072 216.851C628.468 219.142 628.354 221.536 628.732 223.875C631.735 230.276 670.538 242.908 675.466 240.416C680.394 237.923 693.197 209.09 708.095 179.35C717.22 179.642 726.354 178.977 735.342 177.368C744.807 175.631 754.017 172.719 762.759 168.701C781.906 159.864 802.865 122.023 805.698 102.99C807.821 82.3253 803.446 61.5133 793.179 43.4542C745.652 -38.9672 606.244 5.38736 617.573 96.9289C620.807 117.875 629.525 137.594 642.837 154.086ZM677.392 221.552C677.392 222.459 676.372 222.345 671.727 221.552C662.225 220.359 653.025 217.42 644.594 212.885C640.628 210.733 639.552 210.279 639.949 209.316C640.345 208.353 641.195 208.693 647.313 210.393C647.879 210.393 665.44 216.057 670.481 217.814C676.996 220.759 677.392 220.759 677.392 221.552ZM676.373 129.388C682.419 129.701 688.448 128.453 693.876 125.762C698.918 128.205 704.375 129.685 709.964 130.124C700.448 147.854 681.131 183.995 674.9 203.255L650.881 196.628C656.546 182.692 669.065 150.064 676.259 129.388H676.373ZM674.39 124.686C670.16 124.047 666.256 122.039 663.282 118.97C660.303 115.899 658.415 111.938 657.906 107.692C656.32 96.3624 663.57 83.6735 674.503 86.6758C681.357 88.5451 682.207 93.9832 681.018 100.838C679.998 105.822 676.316 118.341 674.277 124.459L674.39 124.686ZM689.798 111.091C690.402 107.384 691.795 103.849 693.876 100.724C694.867 99.0207 696.317 97.6292 698.059 96.7084C699.801 95.7866 701.765 95.3726 703.733 95.5127C707.925 96.7589 709.738 104.689 706.282 109.674C702.959 114.082 698.828 117.812 694.103 120.664C692.475 119.71 691.181 118.282 690.392 116.57C689.604 114.859 689.354 112.947 689.685 111.091H689.798ZM637.739 39.0924C663.117 8.55958 710.871 -3.56287 745.369 9.01276C764.109 15.4459 779.871 28.4715 789.723 45.6635C799.49 62.8478 803.668 82.6446 801.676 102.31C799.07 119.928 779.017 156.521 761.4 164.622C745.293 171.97 727.718 175.534 710.021 175.045C708.095 175.045 706.056 175.045 705.319 176.405C701.977 183.202 695.859 196.344 689.855 208.693C685.705 206.691 681.409 205.024 676.996 203.708C683.567 184.902 704.299 147.968 714.156 130.067C722.695 130.799 731.282 129.317 739.081 125.762C741.186 124.653 742.933 122.966 744.117 120.898C745.298 118.831 745.869 116.469 745.756 114.09C745.642 111.712 744.85 109.415 743.481 107.468C742.107 105.523 740.209 104.008 738.004 103.103C729.224 98.7982 721.35 109.108 716.762 117.775C715.516 120.041 714.099 122.703 712.513 125.706C707.93 125.405 703.412 124.471 699.088 122.93C703.393 119.902 707.216 116.235 710.417 112.054C712.212 109.345 713.118 106.147 713.018 102.9C712.915 99.6531 711.81 96.5179 709.851 93.9266C708.312 92.1396 706.174 90.9748 703.837 90.6513C701.5 90.3279 699.126 90.8687 697.162 92.1705C693.192 94.6084 690.015 98.139 688.004 102.339C685.997 106.539 685.242 111.231 685.833 115.849C686.446 118.456 687.853 120.81 689.855 122.59C686.14 124.129 682.15 124.9 678.129 124.856C680.394 118.171 684.077 106.106 685.04 101.177C685.644 98.3677 685.776 95.4777 685.436 92.6237C684.997 90.1745 683.859 87.9035 682.16 86.0846C680.466 84.2647 678.275 82.9762 675.863 82.3706C662.098 78.462 651.958 93.7 653.94 107.918C654.498 113.014 656.687 117.792 660.177 121.548C663.665 125.303 668.272 127.833 673.314 128.764C666.063 149.157 654.733 182.069 649.069 196.118L636.606 192.889C644.594 152.783 645.557 153.746 644.424 153.236C631.55 136.826 623.318 117.264 620.575 96.589C619.239 86.3369 620.08 75.919 623.035 66.0134C625.99 56.1068 631.003 46.9342 637.739 39.0924ZM716.365 126.045C720.331 118.851 728.261 103.103 735.965 106.955C737.504 107.576 738.849 108.606 739.845 109.934C740.846 111.262 741.46 112.836 741.63 114.489C741.517 124.459 725.995 126.215 716.139 126.045H716.365ZM933.21 151.027C940.035 147.012 948.099 145.641 955.869 147.175C964.404 147.327 972.556 150.739 978.655 156.712C984.759 162.685 988.333 170.764 988.662 179.294C983.533 176.316 977.532 175.195 971.673 176.121C957.455 177.368 938.875 185.072 941.367 198.78C943.406 210.11 958.361 208.58 969.691 205.521C981.02 202.462 990.022 196.911 992.349 185.978C1006.11 196.004 1009.34 213.565 1009.91 230.729C1009.91 230.969 1010 231.2 1010.18 231.37C1010.34 231.54 1010.58 231.635 1010.82 231.635C1011.05 231.635 1011.29 231.54 1011.45 231.37C1011.63 231.2 1011.72 230.969 1011.72 230.729C1012.11 211.526 1008.66 192.719 992.967 181.786C993.132 176.868 992.288 171.969 990.506 167.383C988.724 162.799 986.015 158.625 982.575 155.113C979.127 151.601 975.001 148.827 970.451 146.955C965.9 145.085 961.014 144.157 956.095 144.229C948.231 143.081 940.216 144.724 933.437 148.874C931.341 149.894 932.304 151.423 933.21 151.027ZM984.872 191.643C978.471 200.026 960.344 204.388 951.96 202.972C948.845 202.462 946.295 201.159 945.616 197.93C943.576 186.601 963.12 180.427 974.789 180.03C979.538 179.665 984.275 180.881 988.271 183.485C987.838 186.448 986.674 189.253 984.872 191.643ZM907.266 84.8064C913.327 77.329 909.248 64.3003 892.311 64.2437C885.74 64.2437 882.568 70.928 883.021 77.329C884.04 92.567 901.204 92.1139 907.266 84.8064ZM886.986 77.0458C886.986 73.3072 888.742 68.4355 892.651 68.4922C901.771 68.4922 905.963 72.7407 905.963 77.4423C905.736 88.1486 886.25 93.7 886.986 77.0458ZM884.663 719.252C834.871 699.369 811.759 795.613 771.086 878.317C770.827 881.791 770.944 885.29 771.426 888.74C771.426 897.407 772.389 954.791 777.431 961.305C778.79 963.911 784.512 961.305 787.174 959.662C809.785 945.666 831.094 929.663 850.845 911.852C851.015 911.659 851.138 911.437 851.218 911.191C851.293 910.946 851.322 910.691 851.298 910.436C861.835 895.425 901.318 817.252 910.891 778.052C917.575 750.295 910.948 729.619 884.663 719.252ZM902.451 791.194C875.794 787.777 850.019 779.36 826.487 766.383C839.742 741.288 856.113 712.681 883.134 723.444C913.214 735.397 912.59 760.152 902.451 791.024V791.194ZM808.19 938.476C806.448 937.018 804.55 935.762 802.525 934.738C794.869 930.848 786.027 929.994 777.771 932.358C777.204 925.617 773.975 881.773 773.975 881.376C816.404 896.897 803.318 890.156 845.35 911.059C840.932 915.251 824.334 926.864 808.19 938.363V938.476ZM837.42 774.54C842.942 777.557 848.617 780.299 854.414 782.754C841.427 803.147 829.957 824.47 820.086 846.538C810.569 866.421 810.909 866.308 801.222 888.004C795.558 886.191 789.893 884.492 784.228 882.792C790.346 870.613 833.851 781.564 837.42 774.427V774.54ZM803.432 888.57C821.842 855.545 840.592 814.476 856.68 783.49C862.345 785.869 868.009 787.795 873.674 789.495C870.672 795.159 861.891 810.228 859.569 814.589C857.246 818.951 833.964 864.835 832.322 868.347C829.716 874.012 822.578 889.817 820.369 894.858C814.591 892.309 809.04 890.383 803.205 888.457L803.432 888.57ZM822.408 895.595C825.864 889.307 840.082 862.909 841.838 859.51C844.501 854.242 874.184 793.573 875.826 790.061C881.038 791.534 886.533 792.78 890.045 793.46C879.679 821.784 849.826 876.335 839.063 903.242C829.263 898.653 827.053 897.521 822.182 895.481L822.408 895.595ZM825.864 768.026L836.004 773.69C815.569 808.49 797.771 844.768 782.756 882.226L774.259 879.62C807.17 809.491 808.7 800.314 825.637 767.912L825.864 768.026ZM849.202 908.17L840.649 904.092C849.882 885.965 878.772 839.457 891.971 793.857C895.143 794.423 898.259 794.933 901.261 795.329C886.703 834.171 869.227 871.855 848.976 908.057L849.202 908.17ZM671.727 944.934C673.984 943.065 675.598 940.534 676.34 937.698C677.08 934.86 676.915 931.863 675.863 929.13C675.381 925.183 673.573 921.515 670.732 918.735C667.89 915.954 664.184 914.222 660.228 913.831C656.272 913.434 652.298 914.396 648.965 916.559C645.628 918.721 643.126 921.959 641.874 925.731C634.624 921.029 626.75 916.044 619.216 911.286C624.88 903.752 641.535 907.094 643.234 913.268C643.272 913.509 643.404 913.727 643.598 913.868C643.795 914.01 644.042 914.071 644.282 914.034C644.523 913.996 644.735 913.864 644.882 913.67C645.023 913.471 645.085 913.226 645.047 912.985C644.197 903.129 623.691 897.351 615.42 908.963C608.113 904.488 599.049 899.05 591.459 894.915C597.973 889.25 612.531 892.422 614.117 898.314C614.193 898.516 614.335 898.682 614.523 898.79C614.708 898.894 614.929 898.932 615.137 898.889C615.349 898.847 615.539 898.734 615.675 898.564C615.808 898.399 615.879 898.186 615.874 897.974C615.137 888.797 596.16 882.622 587.55 892.706C583.943 890.685 580.148 889.014 576.221 887.721C575.503 887.423 574.715 887.339 573.95 887.48C573.185 887.622 572.477 887.98 571.915 888.514C557.584 906.357 509.264 952.695 486.945 958.076C486.384 958.162 485.854 958.392 485.41 958.747C484.968 959.101 484.628 959.563 484.42 960.092C484.212 960.621 484.146 961.197 484.231 961.754C484.321 962.315 484.551 962.844 484.906 963.288C489.805 968.263 495.418 972.483 501.56 975.807C495.895 981.471 491.477 986.57 488.191 990.252C486.492 992.064 485.585 1026.73 487.058 1034.38C487.276 1035.13 487.762 1035.78 488.418 1036.2C495.555 1041.07 587.493 1080.84 596.897 1075.51C603.185 1071.94 678.242 993.82 679.431 991.441C681.244 987.702 680.621 962.778 680.508 952.808C680.055 949.806 674.446 946.577 671.727 944.934ZM490.457 1019.77V1007.13C513.966 1018.46 567.78 1041.57 588.173 1048.03C593.385 1049.73 593.838 1049.5 596.557 1048.03C612.135 1038.06 667.139 976.09 677.222 966.63V978.582C646.633 1009.23 594.688 1062.93 593.725 1059.88C588.117 1059.54 495.329 1022.04 490.457 1019.77ZM670.311 925.844C672.345 929.276 673.441 933.184 673.484 937.173C673.465 938.443 673.153 939.69 672.572 940.823C671.992 941.951 671.161 942.933 670.141 943.688C665.383 940.516 656.376 934.624 645.726 927.713C651.561 916.214 664.533 916.044 670.085 925.844H670.311ZM489.041 962.098C513.173 954.961 559 910.776 574.408 891.629C578.114 892.663 581.692 894.127 585.058 895.991C579.393 906.527 585.454 918.083 587.607 916.441C588.796 915.534 586.644 915.194 586.304 909.643C586.158 905.588 587.078 901.566 588.966 897.974C596.783 902.052 605.96 907.377 613.721 911.852C608.963 922.445 614.684 932.925 616.667 931.395C618.649 929.866 615.76 930.206 615.42 924.654C615.283 921.015 615.978 917.389 617.46 914.061C625.447 918.763 633.604 923.635 641.081 928.223C639.93 931.046 639.472 934.105 639.746 937.14C640.024 940.176 641.025 943.103 642.668 945.671C642.743 945.765 642.832 945.85 642.942 945.912C643.046 945.968 643.163 946.01 643.281 946.025C643.404 946.039 643.527 946.034 643.645 946.001C643.762 945.968 643.872 945.916 643.97 945.84C644.065 945.765 644.15 945.676 644.206 945.566C644.268 945.462 644.31 945.345 644.325 945.222C644.338 945.104 644.334 944.981 644.301 944.863C644.268 944.746 644.216 944.632 644.14 944.538C643.121 942.286 642.62 939.836 642.668 937.367C642.715 934.898 643.314 932.472 644.424 930.263C657.622 938.306 668.272 945.047 671.558 947.257C670.934 947.823 611.852 1000.39 591.742 1016.03C578.543 1012.57 509.264 978.186 489.041 962.098ZM491.194 993.65C516.855 1004.98 575.144 1031.26 588.57 1033.82C590.892 1034.27 591.799 1034.44 596.217 1030.92C615.08 1015.8 676.429 951.618 676.996 952.298C677.024 952.468 677.024 952.638 676.996 952.808V964.137C664.363 974.277 594.121 1048.03 592.988 1044.52C587.323 1044.52 495.272 1006.97 490.57 1004.87C490.457 1002.49 490.967 996.143 491.194 993.65ZM594.348 1071.71C588.683 1074.94 502.41 1039.87 490.854 1032.74C490.419 1029.12 490.212 1025.5 490.231 1021.86C515.042 1034.1 587.21 1064.57 593.838 1064.29C603.524 1063.78 672.011 986.683 676.882 981.301C676.939 984.196 676.651 987.085 676.033 989.912C675.07 991.781 598.086 1069.62 594.348 1071.71ZM125.025 752.391C125.422 758.452 125.705 763.72 125.705 768.649C125.705 769.4 126.004 770.122 126.534 770.65C127.066 771.183 127.786 771.481 128.538 771.481C129.288 771.481 130.009 771.183 130.54 770.65C131.071 770.122 131.37 769.4 131.37 768.649C131.37 763.381 131.087 758.169 130.69 751.994C130.638 751.244 130.288 750.545 129.72 750.05C129.151 749.554 128.411 749.308 127.659 749.361C126.908 749.412 126.209 749.762 125.714 750.328C125.22 750.9 124.973 751.64 125.025 752.391ZM988.157 638.814C987.787 638.838 987.426 638.932 987.086 639.093C986.757 639.258 986.458 639.484 986.221 639.768C985.974 640.046 985.789 640.372 985.675 640.721C985.562 641.076 985.521 641.448 985.552 641.816C985.892 647.028 986.232 652.636 986.232 658.074C986.232 658.825 986.53 659.547 987.066 660.075C987.591 660.608 988.312 660.906 989.064 660.906C989.816 660.906 990.537 660.608 991.062 660.075C991.598 659.547 991.896 658.825 991.896 658.074C991.896 652.409 991.556 646.744 991.155 641.42C991.134 641.052 991.041 640.688 990.877 640.358C990.712 640.022 990.485 639.725 990.207 639.484C989.929 639.239 989.599 639.055 989.249 638.942C988.899 638.828 988.528 638.781 988.157 638.814ZM110.354 738.286C111.105 738.286 111.826 737.988 112.356 737.455C112.888 736.926 113.186 736.204 113.186 735.454C113.186 734.703 112.888 733.981 112.356 733.452C111.826 732.919 111.105 732.621 110.354 732.621C103.5 732.621 97.7783 733.131 92.1136 733.018C91.3565 733.018 90.6304 733.315 90.0907 733.844C89.55 734.373 89.239 735.095 89.2246 735.85C89.2246 736.601 89.5232 737.323 90.0537 737.851C90.5851 738.385 91.3051 738.682 92.0569 738.682C97.8915 738.796 104.293 738.569 110.354 738.286ZM970.597 622.046C963.799 622.046 958.078 622.443 952.357 622.5C951.606 622.5 950.884 622.797 950.355 623.331C949.822 623.859 949.524 624.581 949.524 625.332C949.524 626.083 949.822 626.805 950.355 627.333C950.884 627.867 951.606 628.164 952.357 628.164C958.474 628.164 964.819 628.164 970.937 627.711C971.688 627.664 972.391 627.324 972.891 626.762C973.387 626.2 973.641 625.46 973.599 624.709C973.552 623.958 973.212 623.254 972.651 622.755C972.084 622.254 971.348 621.999 970.597 622.046ZM123.496 703.278C123.836 708.49 124.176 714.098 124.176 719.536C124.19 720.281 124.493 720.994 125.021 721.524C125.549 722.052 126.261 722.354 127.008 722.368C127.759 722.368 128.48 722.07 129.01 721.537C129.542 721.009 129.84 720.287 129.84 719.536C129.84 713.871 129.501 708.206 129.161 702.882C129.108 702.131 128.759 701.432 128.19 700.937C127.622 700.442 126.881 700.195 126.13 700.248C125.379 700.299 124.679 700.649 124.185 701.215C123.691 701.787 123.443 702.527 123.496 703.278ZM990.362 608.961C990.362 603.296 990.022 597.632 989.63 592.307C989.579 591.556 989.229 590.858 988.662 590.362C988.096 589.867 987.354 589.621 986.602 589.673C985.85 589.725 985.15 590.074 984.656 590.64C984.161 591.212 983.914 591.952 983.966 592.703C984.305 597.915 984.645 603.523 984.645 608.961C984.645 609.712 984.944 610.434 985.48 610.962C986.005 611.496 986.726 611.793 987.478 611.793C988.23 611.793 988.961 611.496 989.496 610.967C990.042 610.439 990.351 609.716 990.362 608.961ZM165.301 737.55C165.673 737.535 166.039 737.445 166.377 737.29C166.715 737.134 167.019 736.912 167.272 736.639C167.524 736.365 167.721 736.049 167.848 735.695C167.977 735.345 168.036 734.977 168.021 734.604C167.963 733.863 167.628 733.169 167.081 732.663C166.535 732.164 165.818 731.885 165.075 731.885C158.221 732.168 152.499 732.395 146.778 732.281C146.026 732.281 145.306 732.579 144.775 733.112C144.244 733.641 143.946 734.363 143.946 735.114C143.946 735.864 144.244 736.586 144.775 737.115C145.306 737.648 146.026 737.946 146.778 737.946C152.839 738.059 159.184 737.833 165.301 737.55ZM1025.54 621.31C1019.88 621.593 1013.59 621.763 1007.3 621.763C1006.93 621.749 1006.56 621.81 1006.2 621.942C1005.85 622.075 1005.54 622.278 1005.26 622.532C1005 622.792 1004.78 623.104 1004.64 623.448C1004.49 623.793 1004.41 624.166 1004.41 624.539C1004.41 625.294 1004.71 626.021 1005.24 626.564C1005.77 627.102 1006.49 627.413 1007.24 627.428C1013.7 627.428 1018.91 627.428 1025.77 626.975C1026.14 626.96 1026.5 626.871 1026.84 626.715C1027.18 626.56 1027.49 626.337 1027.74 626.064C1028 625.79 1028.19 625.474 1028.32 625.12C1028.45 624.771 1028.5 624.402 1028.49 624.029C1028.42 623.293 1028.08 622.609 1027.53 622.108C1027 621.602 1026.29 621.319 1025.54 621.31ZM35.1263 569.705C35.8627 570.271 195.608 546.593 202.462 542.401C202.842 542.123 203.145 541.754 203.342 541.33C203.54 540.904 203.628 540.432 203.595 539.965C203.595 532.657 194.021 464.058 189.433 446.951C188.867 444.855 188.3 442.759 186.997 442.022C178.33 436.811 25.6097 465.587 16.4895 471.479C16.2426 471.625 16.0287 471.824 15.863 472.054C15.6969 472.29 15.5827 472.555 15.5264 472.838C13.6004 479.692 30.198 566.306 35.1263 569.705ZM18.982 474.198C29.8582 469.269 168.474 443.892 184.335 445.874C188.187 455.787 198.497 528.409 199.176 539.059C191.302 541.381 37.279 567.835 36.7125 567.948C36.146 568.062 36.0894 568.742 34.8998 565.173C29.9149 550.218 18.6988 487 18.982 474.198Z" fill="#4F210E"/>
<path d="M214.924 547.442C215.232 546.871 215.37 546.22 215.32 545.573C215.32 536.566 202.405 436.584 197.816 428.597C197.457 428.008 196.948 427.525 196.34 427.196C195.734 426.868 195.051 426.706 194.361 426.728C175.384 424.405 15.2998 455.674 4.76344 462.982C3.29062 464.001 3.5172 466.55 3.68714 469.269C4.59349 484.168 20.6812 582.167 26.3459 581.6C26.9691 581.6 26.7425 581.147 25.2696 584.149C16.4327 602.333 -0.334793 660.566 0.00508928 672.292C0.00508928 677.22 1.13803 683.621 6.00967 683.282C40.9609 678.976 212.318 651.786 261.601 641.646C263.527 641.25 264.773 639.494 264.716 636.605C264.134 631.79 262.676 627.125 260.411 622.839C253.5 609.867 224.837 558.488 214.924 547.442ZM26.6858 579.844C22.2674 574.18 6.00967 476.577 7.2559 465.757C19.7182 459.3 177.65 428.767 194.191 431.259C198.723 443.722 210.449 533.734 211.185 544.553C191.132 551.464 52.2903 573.896 26.6858 579.844ZM29.1783 581.544C33.9366 580.354 196.004 553.22 210.845 549.312C218.946 556.846 255.54 621.933 257.919 627.484C225.403 633.149 32.5205 665.381 4.14032 669.686C4.53685 652.522 22.1541 592.533 29.1783 581.544Z" fill="#4F210E"/>
<path d="M50.4804 640.287C55.4087 639.551 159.979 626.975 197.763 616.722C197.995 616.661 198.195 616.51 198.318 616.307C198.439 616.099 198.474 615.848 198.414 615.618C198.354 615.386 198.204 615.183 197.996 615.065C197.789 614.942 197.542 614.905 197.309 614.966C189.889 616.495 99.3668 628.561 50.3671 638.531C50.2317 638.507 50.0924 638.512 49.9603 638.549C49.828 638.588 49.7058 638.653 49.6034 638.748C49.5004 638.838 49.4202 638.951 49.3679 639.079C49.3159 639.206 49.2932 639.342 49.3022 639.479C49.3112 639.616 49.3509 639.753 49.4193 639.872C49.4872 639.989 49.5817 640.093 49.695 640.169C49.8087 640.249 49.9386 640.301 50.0745 640.32C50.2105 640.339 50.3492 640.329 50.4804 640.287ZM126.897 246.137C124.781 250.916 123.002 255.838 121.572 260.866C121.488 261.672 121.71 262.482 122.195 263.131C127.917 271.742 186.546 337.849 201.841 347.139C203.937 348.442 206.43 349.348 207.959 347.479C219.069 333.654 233.57 322.94 250.048 316.38C263.46 311.635 277.521 308.978 291.74 308.506C303.069 307.486 305.052 306.353 309.414 298.932C314.559 289.166 321.386 280.384 329.58 272.988C340.029 263.852 351.626 256.121 364.078 249.989C364.638 249.672 365.077 249.176 365.323 248.58C365.569 247.985 365.61 247.325 365.438 246.704C363.523 241.831 360.99 237.224 357.904 232.995C359.943 232.315 362.209 231.692 362.209 229.653C362.209 223.988 312.813 152.5 299.104 139.018C297.688 137.602 295.648 135.732 293.779 135.846C265.456 137.432 237.869 164.169 221.894 187.508C203.597 186.828 191.758 185.185 170.912 193.965C156.195 200.212 142.927 209.431 131.939 221.043C130.239 222.799 118.683 235.035 118.513 235.998C118.343 236.961 118.683 236.961 126.897 246.137ZM353.485 244.551C329.863 248.573 314.795 268.23 303.692 289.586C298.764 299.102 299.217 299.555 294.006 299.442C284.893 298.926 275.751 299.268 266.702 300.462C260.064 301.454 253.538 303.086 247.215 305.333C232.827 310.432 216.343 326.746 207.562 338.868C207.376 339.118 207.138 339.325 206.866 339.476C206.594 339.627 206.294 339.719 205.983 339.746C205.673 339.773 205.36 339.734 205.066 339.632C204.772 339.529 204.504 339.366 204.277 339.152C185.867 320.175 153.295 286.867 136.924 267.72C136.131 266.87 137.49 265.624 138.283 266.53C148.876 277.86 176.237 304.994 205.58 334.507C215.493 321.874 230.788 306.58 245.912 301.255C254.16 298.313 262.743 296.41 271.46 295.59C279.625 294.97 287.824 294.97 295.988 295.59C299.331 291.738 315.871 248.007 353.372 243.135C353.481 243.215 353.572 243.319 353.635 243.44C353.7 243.56 353.735 243.693 353.74 243.829C353.747 243.965 353.721 244.101 353.667 244.226C353.613 244.351 353.531 244.462 353.428 244.551H353.485ZM293.723 140.434C305.052 148.365 351.163 216.624 357.167 228.577C346.748 231.878 336.69 236.224 327.144 241.549C318.105 246.081 310.191 252.57 303.979 260.547C297.765 268.524 293.41 277.786 291.23 287.66C270.894 254.578 242.514 218.154 223.65 191.36C224.783 190.623 256.619 142.643 293.723 140.434ZM172.158 197.081C192.834 188.754 204.277 190.68 221.384 191.416C238.378 220.42 268.911 261.319 289.021 288.113C270.46 283.721 250.929 286.407 234.243 295.647C224.217 301.311 211.981 314.907 204.447 323.347C193.571 314.624 130.806 247.78 120.723 236.451C136.244 218.89 150.576 205.691 172.158 196.854V197.081ZM68.4941 341.134C67.0944 340.152 65.4393 339.597 63.7296 339.537C62.0199 339.476 60.3298 339.913 58.8642 340.794C57.7971 341.27 56.8331 341.952 56.0298 342.801C55.2251 343.649 54.5963 344.647 54.1781 345.739C53.7599 346.83 53.5607 347.994 53.5923 349.162C53.6234 350.331 53.8845 351.481 54.3607 352.549C54.8366 353.616 55.5189 354.579 56.3665 355.384C57.2152 356.187 58.2132 356.816 59.305 357.234C60.3967 357.654 61.5595 357.852 62.7285 357.82C63.8965 357.79 65.0479 357.528 66.115 357.052C67.8206 356.679 69.3727 355.797 70.5643 354.522C71.757 353.246 72.5336 351.64 72.7911 349.914C73.0496 348.187 72.7767 346.423 72.0093 344.855C71.242 343.287 70.0164 341.99 68.4941 341.134ZM64.7554 352.464C60.7902 353.71 58.411 352.464 57.448 350.538C55.6353 346.516 57.9012 340.341 63.7924 342.154C67.9277 343.683 71.2698 350.651 64.7554 352.747V352.464ZM356.544 81.9178C358.187 85.2599 365.834 84.0137 369.176 82.9374C370.932 82.3709 372.065 81.7478 372.235 80.0484C372.745 75.7999 373.311 38.9795 371.385 35.4107C371.187 35.0363 370.882 34.7295 370.508 34.5279C370.135 34.3264 369.712 34.239 369.29 34.2778C363.246 34.2608 357.232 35.1393 351.446 36.8835C349.123 38.2997 354.505 78.1791 356.544 81.9178ZM352.635 38.2431C357.868 37.4944 363.16 37.2479 368.44 37.5066C368.78 41.6985 367.873 78.0091 367.817 78.5756C365.423 79.4335 362.868 79.7436 360.339 79.4819C359.943 78.1791 359.263 74.6669 358.413 70.2486C355.917 59.691 353.989 49.0069 352.635 38.2431ZM62.9994 293.324C63.5432 293.603 64.1447 293.748 64.7554 293.748C65.3662 293.748 65.9677 293.603 66.5115 293.324C68.7001 291.974 70.4356 290.002 71.4964 287.66C71.6406 287.285 71.6849 286.879 71.6252 286.482C71.5654 286.085 71.4048 285.71 71.1566 285.394C68.4375 282.165 38.7545 247.78 35.1291 249.933C30.6777 252.814 26.4546 256.034 22.4968 259.563C22.3373 259.706 22.2094 259.88 22.1216 260.075C22.0337 260.27 21.988 260.481 21.987 260.696C21.8737 263.641 54.8422 290.039 62.9994 293.324ZM35.8088 251.406C39.9441 254.408 53.8792 271.628 66.7947 286.866C66.2396 287.741 65.5516 288.525 64.7554 289.189C51.1762 280.498 38.2112 270.883 25.9523 260.412C29.0254 257.186 32.319 254.176 35.8088 251.406ZM124.801 126.442C126.047 104.463 138.85 94.2668 152.218 91.661C148.423 105.596 149.046 123.723 162.811 126.046C169.382 127.122 172.611 123.723 177.37 119.758C197.706 102.764 181.278 85.7698 158.336 86.9593C166.89 63.5076 186.66 44.4176 212.887 43.7945C213.127 43.7945 213.358 43.6991 213.528 43.5291C213.698 43.3588 213.794 43.1284 213.794 42.8881C213.794 42.6478 213.698 42.417 213.528 42.2471C213.358 42.0771 213.127 41.9818 212.887 41.9818C184.564 41.4153 162.302 61.8082 153.521 87.2992C138.397 89.905 123.385 101.234 122.989 126.102C122.966 126.222 122.967 126.343 122.993 126.462C123.017 126.58 123.066 126.693 123.134 126.793C123.203 126.893 123.289 126.979 123.391 127.045C123.492 127.111 123.607 127.157 123.725 127.179C123.844 127.201 123.966 127.199 124.084 127.175C124.203 127.15 124.315 127.101 124.416 127.033C124.516 126.964 124.601 126.878 124.667 126.776C124.733 126.675 124.779 126.562 124.801 126.442ZM157.033 90.9813C165.474 90.4148 178.049 93.0206 181.505 100.668C183.487 105.03 181.505 110.411 174.481 116.302C172.573 118.213 170.398 119.835 168.023 121.117C159.526 124.743 150.122 114.263 157.033 90.9813ZM173.234 892.139C167.761 890.672 162.051 890.317 156.438 891.092C150.825 891.865 145.424 893.754 140.552 896.647C135.681 899.536 131.436 903.374 128.07 907.935C124.703 912.49 122.282 917.673 120.949 923.182C118.433 934.625 120.564 946.596 126.875 956.463C133.185 966.332 143.157 973.291 154.598 975.807C166.038 978.323 178.01 976.194 187.878 969.883C197.748 963.571 204.706 953.601 207.223 942.159C208.298 936.64 208.27 930.966 207.14 925.457C206.011 919.949 203.803 914.723 200.644 910.073C197.484 905.424 193.436 901.444 188.732 898.366C184.027 895.288 178.76 893.173 173.234 892.139ZM190.738 938.307C188.465 947.37 183.024 955.324 175.398 960.724C167.773 966.13 158.465 968.627 149.159 967.763C140.617 964.426 133.525 958.18 129.132 950.131C124.739 942.078 123.325 932.737 125.141 923.748C127.261 914.463 132.651 906.25 140.328 900.613C148.004 894.977 157.453 892.291 166.947 893.046C175.573 896.61 182.667 903.101 186.977 911.381C191.287 919.661 192.54 929.196 190.512 938.307H190.738Z" fill="#4F210E"/>
<path d="M248.687 908.283C243.756 906.583 238.47 906.172 233.336 907.093C231.207 902.212 228.589 897.562 225.519 893.215C229.201 889.873 239.284 880.582 236.848 876.221C228.179 865.849 217.887 856.956 206.371 849.88C201.563 847.184 196.27 845.471 190.794 844.838C187.169 845.348 178.558 859.453 176.632 862.625C175.385 862.625 170.968 861.209 170.628 861.039C170.628 856.961 169.438 842.232 165.756 840.533C161.639 839.018 157.363 837.969 153.011 837.417C148.989 836.794 112.791 843.422 110.129 848.294C108.373 851.579 112.452 863.985 113.641 867.44C110.586 869.121 107.652 871.014 104.861 873.105C99.1962 877.127 100.726 876.957 99.706 876.504C98.4731 875.914 97.1528 875.532 95.7973 875.371C91.2718 872.718 85.9665 871.718 80.7859 872.539C75.5744 874.238 63.282 902.222 61.2993 909.416C60.6505 911.228 60.4754 913.178 60.7895 915.08C62.149 918.819 71.2126 921.821 75.0079 923.011C73.9594 930.3 73.9594 937.701 75.0079 944.99C70.023 946.35 59.6555 949.408 60.222 954.507C60.7885 959.605 74.0439 993.253 79.5386 995.916C82.5492 997.601 85.8779 998.635 89.3118 998.956C92.7456 999.276 96.2083 998.88 99.4794 997.785C101.321 996.864 103.101 995.826 104.804 994.669C107.07 996.369 109.449 997.898 111.885 999.371C110.129 1003.73 106.22 1013.48 107.467 1017.89C108.09 1020.22 109.959 1020.95 112.565 1021.92C119.759 1024.53 158.506 1033.82 164.397 1032.8C166.606 1032.46 167.796 1030.13 168.475 1027.93C169.734 1022.89 170.475 1017.75 170.684 1012.57C173.593 1012.28 176.486 1011.85 179.352 1011.27C181.102 1014.34 183.34 1017.12 185.979 1019.48C188.868 1021.52 191.304 1020.5 194.59 1018.41C196.176 1020.45 198.555 1023.28 201.104 1023.56C207.505 1024.3 233.959 999.371 236.678 994.273C238.944 990.024 230.674 982.434 226.992 979.091C230.975 973.096 234.101 966.578 236.282 959.718C240.368 960.332 244.503 960.564 248.631 960.398C250.5 960.398 252.653 959.718 253.446 957.962C256.901 950.088 255.882 920.235 253.446 912.645C253.106 910.435 250.557 908.963 248.687 908.283ZM250.047 913.494C251.973 920.858 252.595 948.672 249.763 955.866C244.865 956.348 239.924 956.122 235.091 955.186C234.576 955.097 234.046 955.205 233.606 955.488C233.165 955.771 232.847 956.211 232.713 956.716C230.457 964.373 226.955 971.609 222.346 978.128C222.018 978.563 221.87 979.101 221.934 979.644C221.996 980.182 222.267 980.674 222.687 981.018C226.661 984.166 230.037 988.004 232.656 992.347C229.824 996.992 207.675 1017.28 201.557 1018.98C200.651 1018.98 198.158 1015.58 197.535 1014.67C195.442 1011.52 193.551 1008.25 191.871 1004.87C191.625 1004.37 191.204 1003.99 190.691 1003.79C190.177 1003.59 189.608 1003.59 189.094 1003.79C172.666 1009.96 166.436 1006.34 166.436 1010.42C166.443 1016.52 165.448 1022.59 163.489 1028.38C150.177 1026.93 137.069 1024 124.404 1019.66C125.016 1013.6 126.703 1007.71 129.389 1002.26C131.088 998.465 124.291 999.541 111.602 986.625C111.193 986.248 110.657 986.035 110.101 986.035C109.544 986.035 109.008 986.248 108.6 986.625C102.935 991.271 95.5708 995.802 94.0979 995.066C91.2089 993.65 77.8969 963.457 77.1038 957.339C81.133 954.53 85.707 952.599 90.5292 951.674C91.0431 951.528 91.487 951.203 91.7795 950.754C92.07 950.306 92.1905 949.767 92.1153 949.239C90.7269 941.218 90.7269 933.014 92.1153 924.994C92.2018 924.498 92.0978 923.993 91.8248 923.573C91.5509 923.153 91.1286 922.85 90.6425 922.728C86.3713 921.609 82.2608 919.952 78.4067 917.799C77.1605 916.893 77.2738 916.95 77.3871 915.987C81.0537 902.764 86.9336 890.255 94.7777 878.996C97.8366 878.147 106.107 884.208 108.939 886.36C109.235 886.649 109.632 886.808 110.044 886.808C110.457 886.808 110.853 886.649 111.149 886.36C113.751 883.66 116.554 881.163 119.532 878.883C128.143 872.369 130.465 873.218 129.729 870.952C127.124 865.269 125.662 859.128 125.424 852.882C126.301 852.151 127.298 851.579 128.369 851.183C133.658 849.092 139.091 847.387 144.627 846.084C151.337 844.215 158.234 843.091 165.19 842.742C166.379 843.252 167.456 848.407 167.739 849.993C169.835 861.322 168.419 863.645 170.062 863.815C186.206 865.401 189.491 869.876 190.624 867.893C193.766 862.399 197.427 857.22 201.557 852.429C202.747 851.239 202.69 850.673 206.259 852.712C216.921 859.68 226.47 868.215 234.582 878.033C235.432 879.506 228.068 887.323 222.687 891.912C220.817 893.555 223.48 894.291 228.351 903.581C233.223 912.871 232.089 915.477 234.695 914.91C239.719 913.706 244.888 913.23 250.047 913.494ZM1036.25 440.152C1024.37 435.302 1011.93 432.007 999.208 430.352C989.918 428.879 978.98 427.407 969.747 426.217C978.64 413.641 1004.98 381.806 1009.39 374.045C1010.64 371.949 1008.27 369.004 1006.51 367.248C996.654 356.711 977.621 352.746 963.006 350.48C954.622 349.121 919.614 344.815 913.666 347.648C906.529 351.047 853.734 430.352 852.148 442.418C852.148 444.457 852.827 445.25 854.81 445.987C863.137 449.046 900.694 453.804 909.078 455.787C897.748 475.613 847.389 542.627 842.461 552.087C841.271 554.466 842.008 555.882 843.424 556.335C848.522 558.36 853.767 559.989 859.115 561.207C861.155 561.83 865.63 559.054 872.144 555.089C901.374 537.528 1026.79 454.71 1036.42 444.004C1036.69 443.754 1036.89 443.448 1037.04 443.108C1037.17 442.769 1037.23 442.405 1037.21 442.039C1037.2 441.674 1037.1 441.316 1036.94 440.991C1036.77 440.665 1036.53 440.38 1036.25 440.152ZM914.516 508.129C866.366 539.908 850.108 549.198 849.542 549.594C857.303 537.755 905.509 471.705 913.78 455.9C913.921 455.593 913.997 455.263 913.997 454.923C913.997 454.588 913.917 454.253 913.77 453.95C913.624 453.643 913.412 453.38 913.147 453.167C912.888 452.954 912.581 452.803 912.25 452.728C906.585 450.689 865.346 446.27 855.603 442.815C856.849 432.278 908.285 352.633 914.516 349.46C920.747 346.288 981.189 353.482 992.524 361.583C986.571 373.196 953.716 413.868 948.391 423.328C947.315 425.254 946.975 427.123 949.071 427.633C951.167 428.143 1004.41 434.374 1016.03 438.17C1001.87 450.009 930.377 497.479 914.516 507.902V508.129ZM551.126 161.789C551.126 162.299 551.466 162.922 552.315 166.207C552.537 166.92 553.028 167.519 553.684 167.878C554.336 168.236 555.105 168.328 555.827 168.133C556.549 167.923 557.158 167.435 557.518 166.776C557.881 166.118 557.966 165.342 557.753 164.621C557.187 162.412 556.677 160.543 556.337 159.636C556.007 159.014 555.459 158.537 554.793 158.3C554.133 158.061 553.406 158.077 552.754 158.346C552.103 158.615 551.574 159.116 551.277 159.753C550.974 160.389 550.918 161.115 551.126 161.789Z" fill="#4F210E"/>
</svg>
