<svg id="圖層_1" height="512" viewBox="0 0 500 500" width="512" xmlns="http://www.w3.org/2000/svg" data-name="圖層 1"><g fill="#9192ff"><path d="m186.4 291.41c-30.81-9.28-44.66-44.18-43.42-74 1.21-29.14 15.86-58.76 40.05-75.53 29.48-20.45 69.64-24.63 104.56-20.94 31.1 3.28 63.54 16.38 73.23 48.91 10.61 35.67-7.26 74.63-29.28 102.25-11.61 14.55-26.48 24-44.74 27.9-17.84 3.8-36.57 3-54.34-.87-34-7.42-65-30.29-73.74-65.24-8.28-33.27 11.36-66 39.32-83.19 16.36-10 35-15.21 54-17.11 17.61-1.76 36.74-1.39 53.82 3.7 16.2 4.83 29.53 14.48 35.69 30.67 5.72 15 6.18 31.45 2.71 47-6.74 30.3-28.89 56.94-58.18 67.69s-64.5 5.62-89.9-12.56c-14-10-25.9-23.8-26.3-41.72s8.83-36 20.23-49.25c12.67-14.67 29.89-22.78 48.25-28.12 16.3-4.73 33.68-7.52 50.57-4.59 14.84 2.58 28 10.72 35.14 24.19 6.95 13 7.94 28.76 5.36 43.11-5.43 30.29-29.18 58.29-58.8 67.46-28.44 8.81-62.71-1.12-78.57-27.43-17.32-28.73-3.09-66.33 23.05-84.4a93.37 93.37 0 0 1 50-16.09c17-.58 34.31 3.22 45.34 17 20.79 25.95 9.15 62-10 84.94a146.42 146.42 0 0 1 -17.85 17.89c-6.37 5.39-14.31 11.77-23.14 11.38l6.47 15.22c20.88-19.77 42.57-41.81 49.93-70.51 7.59-29.59-5.64-59.88-27.49-79.89l-8.15 12.45c17.7 15.4 28.3 37.81 29.83 61.11.27 4.09 3.21 8.24 7.26 9.26 3.52.89 7.61-1.18 7.92-5.2 2.17-28.05-7.6-54-18.18-79.5l-6.64 9.84a63 63 0 0 1 40.64 28.65l12.6-7-23-36.07-11.21 8.95a177.55 177.55 0 0 1 27.11 51.13c1.46 4.32 8.94 11.21 13.12 5.39 16.67-23.22 1.21-49.32-13.34-68.88-6-8.09-16.38.91-11.21 8.95a94.26 94.26 0 0 1 13.45 69.2c-1.75 9.13 12.94 17.33 15.08 6.19a113.65 113.65 0 0 0 -15.93-82.37l-11.21 8.95c8.77 11.79 22 29.89 11.39 44.63l13.1 5.41a206.53 206.53 0 0 0 -31.75-59.5c-6.13-8-16.34.89-11.21 8.95l23 36.07c2.21 3.46 6.48 6.63 10.66 4.39 4-2.12 4-8 1.94-11.37a83.46 83.46 0 0 0 -54.42-38.79c-5.3-1.12-8.39 5.61-6.64 9.83 9.25 22.28 19.47 46.09 17.57 70.75l15.17 4.06a112 112 0 0 0 -38.64-77c-7.77-6.76-14.73 6.42-8.15 12.44 18.34 16.79 29.32 40.4 21.57 65.2-7.69 24.59-27.75 43.73-45.94 61-4.82 4.57.28 14.95 6.47 15.23 11.3.5 20.55-4.62 29.17-11.46a151.57 151.57 0 0 0 21.9-21c12.64-15 22.58-33.49 24.56-53.27 1.88-18.7-2.68-37.88-13.62-53.26-12.14-17.07-31.11-25.41-51.74-26.39-40.62-1.93-82.86 19.07-96.87 59-6.69 19.06-6.61 39.67 1.65 58.22 7.51 16.87 21.45 30.14 37.63 38.66 34.07 17.94 74.06 9 101.23-17 26.35-25.22 39.43-66 26.66-101.14-6.62-18.19-19.81-33.07-38-40.34s-39-6.65-57.94-2.66c-20.86 4.39-42.11 12-58.34 26.22-15.77 13.78-27.44 34-31.19 54.63-4.09 22.53 3.58 43.61 19.42 59.81a111.26 111.26 0 0 0 48.3 28.95c36.39 10.54 76.13 3.47 104.12-22.84 27.05-25.42 39.7-64.84 31.69-101.13-4.7-21.29-17.11-39.34-36.51-49.6-17.89-9.44-39.21-11.57-59.13-11.29-42.07.6-84.79 15.72-108.29 52.51-22.72 35.55-15.44 80.64 12.13 111.4 28.09 31.34 73.76 44 114.75 39.06 20.85-2.54 40.45-11 55.05-26.3s26.38-35.59 33.8-55.43c14.69-39.24 9.69-86.69-26.21-112.77-31.08-22.57-74.37-24.27-111.07-19.29-21.1 2.86-42.53 9.3-60.08 21.68a106.86 106.86 0 0 0 -34 40c-16 32.21-16.66 72.36 1.18 104 9.41 16.67 24.08 31.29 42.74 36.91 10.84 3.26 11.69-13.37 2.73-16.07z"/><path d="m141.24 234.85c-3.75 10.52 1.43 21.64 6.07 31.1a105 105 0 0 0 18.28 26c8.08 8.47 17.14-3.24 9.83-10.92a86.8 86.8 0 0 1 -13.24-17.73 80.55 80.55 0 0 1 -4.62-9.65c-.85-2.17-3.25-6.47-2.43-8.76a10.52 10.52 0 0 0 -3.71-12c-3.09-2.21-8.64-2.36-10.18 2z"/><path d="m258.8 272.54c-10.48 7.83-24 4.93-32.1-4.83-9-10.9-9.68-26.52-8.89-40 .26-4.54-1.68-9.32-6.18-11.13a6.36 6.36 0 0 0 -8.9 4.93c-1.24 8.65 1.29 16.44 4.46 24.37 2.87 7.22 5.77 14.53 9.74 21.23 7.78 13.16 19.44 24.08 34.94 26.69 4.44.75 7.31-3.63 7.05-7.6a10.4 10.4 0 0 0 -8.23-9.52c-10.1-1.7-17.23-9.48-22-18.06a122.21 122.21 0 0 1 -6.69-14.47c-2.06-5.12-5-10.79-4.17-16.44l-15.08-6.2c-1.2 20.51.82 42.21 15.11 58.24 12.16 13.64 33.92 20.31 49.69 8.53 3.67-2.74 4.12-7.42 1.93-11.36-1.71-3.09-7-7.13-10.66-4.38z"/><path d="m221.68 236.52c-.44-5.13 28.7-2.92 32.37-2.83 6.59.17 13.17.44 19.74.94q4.92.36 9.83.91c2.18.24 5.75.07 7.4 1.57l-3.06-3.5c1.29 2-.83 8.92-1.47 11.24a45 45 0 0 1 -6.14 13.15l13.42 9.76c5-23.74 11.89-47.68 6.72-72a91 91 0 0 0 -34.07-52.95c-8.45-6.39-14 6.1-8.15 12.44a104.08 104.08 0 0 1 22.17 36.08c1.19 3.4 2.24 6.86 3.1 10.36.58 2.32 1.94 5 .28 6.88-4.5 5.18-16.67 1.53-22.07.55-16.58-3-33.28-1.59-49.67 1.88-8 1.7-16 3.57-23.84 5.94-8.17 2.49-10.59 8.2-10 16.37a76 76 0 0 0 19.63 45.41c5.48 6.06 15.19 1.6 12.14-6.73a196 196 0 0 1 -10.47-42.19l-13.94 2.53a139.38 139.38 0 0 1 16.4 44.29l12.15-6.73c-11.92-15.5-13.21-37-12.81-55.8.19-8.81 1.29-18.73 6.77-26 6.06-8 16.21-11.16 25.46-13.82l-8.42-15.18a398 398 0 0 0 -38.68 36.81c-6.31 6.88 4 19.62 11.76 13.33l66.1-53.85-11.77-13.33a159.06 159.06 0 0 1 -51.67 48.85l10.24 14.53a101.31 101.31 0 0 1 56.24-25.14l-8.41-15.18c-14.15 15.67-34.72 22.4-54.53 27.74-9.75 2.64-4 18.58 5.07 17a616.68 616.68 0 0 1 72.37-8l-5.07-17a289.08 289.08 0 0 1 -60.45 2.94l1.15 17.21 49.5-.2-3.12-17.07-56.88 10.58c-9 1.67-4.84 17.09 3.13 17.07a348.68 348.68 0 0 0 64.71-6.06l-6.9-16.39a510.73 510.73 0 0 1 -63.74 19.17c-9.81 2.27-3.89 19.1 5.07 17a312.46 312.46 0 0 1 31.73-5.62q7.53-.93 15.1-1.47c3.82-.28 9-1.26 12.3 1.21l.7-15.51a241.81 241.81 0 0 1 -27.23 3.19l5.07 17a362.28 362.28 0 0 1 43.41-6.9c3.14-.3 4.94-3.72 5.06-6.49.15-3.71-1.67-6.6-4.36-9a187 187 0 0 1 -27.25-30.86c-2.18-3.07-7.06-4.15-10-1.8-3.45 2.71-2.7 7.21-1.18 10.75a77.23 77.23 0 0 0 16.38 24.17l8.15-12.44a40 40 0 0 1 -14.15-22.74l-6.64 9.84a41.87 41.87 0 0 1 12.21 5.16c7.45 4.64 13.77-3.37 9.53-10.48l-9-15.09-9.53 10.48c4.92 3.14 8.87 7.24 10.93 12.79l12.14-6.74-12.92-17.74c-1.78-2.45-6.48-4.31-9.27-2.41a303.11 303.11 0 0 0 -66.87 61.81l12.83 11.69 8.45-17.52-13.86-10.07a49 49 0 0 1 -6.9 12.85l13.53 7.62a63 63 0 0 1 2.16-15.08l-14.79-1.82a48.34 48.34 0 0 1 -.64 20.9l13.83-.4c-2.14-3.85-2-8.73-3.55-12.86-1.78-4.7-4.59-8.87-8.91-11.54-8.95-5.53-19.3.57-19.2 10.84l15.28 1.92-.26-6.05c-.43-9.81-15.25-13.67-15.28-1.91v13.23c0 9.88 15.25 13.64 15.28 1.92v-13.24l-15.28-1.91.26 6c.43 9.81 15.4 13.68 15.28 1.92q-1.94 2.92-.26 2.3c-1.13-.65-1.46-.72-1-.2a16 16 0 0 0 .79 3.06c1.13 4.75 1.85 9.12 4.27 13.47 3.27 5.87 12 7.26 13.84-.4a68.29 68.29 0 0 0 0-29.64c-1.56-7.61-12.58-10.36-14.77-1.82a80.83 80.83 0 0 0 -2.36 19.35c-.07 5.56 8.85 13.76 13.52 7.62a62.68 62.68 0 0 0 9-16.1 10.48 10.48 0 0 0 -3.71-12c-3.41-2.45-8.23-2.11-10.19 1.95l-8.44 17.52c-3.24 6.72 6.86 19.19 12.83 11.7a290.16 290.16 0 0 1 63.82-59.39l-9.27-2.41 12.92 17.74c5 6.91 15.05 1.12 12.14-6.73-3.68-9.94-9.92-18.47-18.92-24.22-7.45-4.75-13.73 3.43-9.53 10.48l9 15.09 9.51-10.46a66.18 66.18 0 0 0 -19.86-8.3c-5.87-1.42-7.61 5.8-6.65 9.83a61.84 61.84 0 0 0 22.21 34.16c8.21 6.47 14.36-6.24 8.15-12.45a62.64 62.64 0 0 1 -13.66-20.24l-11.19 8.95a205.67 205.67 0 0 0 30.6 33.91l.7-15.5a358.63 358.63 0 0 0 -43.46 6.93c-10.18 2.27-3.72 17.56 5.07 17a244.4 244.4 0 0 0 27.23-3.18c7.83-1.37 5.27-12.06.7-15.51-9.39-7.07-22.41-4.57-33.28-3.44a307 307 0 0 0 -37.38 6.3l5.07 17a539 539 0 0 0 67.4-20.46c8.21-3.08.77-17.86-6.9-16.39a329.37 329.37 0 0 1 -60.82 6l3.07 17.12 56.89-10.58c9-1.67 4.84-17.1-3.12-17.08l-49.48.15c-10.68 0-8 16.6 1.18 17.12a309.22 309.22 0 0 0 64.34-3c4.5-.7 5.81-6 4.69-9.8a9.64 9.64 0 0 0 -9.76-7.24 618.82 618.82 0 0 0 -72.37 8l5.07 17c22.36-6 45.26-13.78 61.22-31.46 5.19-5.75-1.2-16-8.41-15.18a113.65 113.65 0 0 0 -62.94 28.86c-6.07 5.47 2.89 18.84 10.24 14.53a168.5 168.5 0 0 0 54.75-51.26c5-7.43-3.66-19.93-11.77-13.33l-66.09 53.85 11.76 13.33a398 398 0 0 1 38.68-36.82c5.64-4.68-1.59-17.14-8.41-15.18-11.51 3.31-23.81 7.3-31.68 16.93-8 9.82-10.14 22.53-10.65 34.84-1 25.09 2.46 51.38 18.15 71.78 2 2.62 6.25 4.1 9.28 2.42 3.36-1.86 3.5-5.83 2.87-9.15a155 155 0 0 0 -18.27-48.66c-1.72-3-5.18-5.73-8.83-5-3.37.64-5.54 4.23-5.11 7.56a216.43 216.43 0 0 0 11.29 46.66l12.14-6.73a54.78 54.78 0 0 1 -10.36-16.11 55.89 55.89 0 0 1 -3-10 47.37 47.37 0 0 1 -.7-4.9c-.08-.77 0-1.63-.18-2.4-.2-1 .21-1.17-.17-.81s3-.43 3.46-.56c2.15-.57 4.3-1.14 6.46-1.69 4-1 8-2 12.09-2.92a162.94 162.94 0 0 1 25.34-3.78 100.49 100.49 0 0 1 24.1 1.91c8 1.47 16.22 2.62 24-.36 16.72-6.37 10.45-25.46 5.85-38.21a127.55 127.55 0 0 0 -26.45-43.67l-8.1 12.44a69.43 69.43 0 0 1 26.25 42.33c3.86 20.66-3.28 42.35-7.51 62.44-.77 3.65 1.35 8 4.31 10.08 2.42 1.75 7.1 2.63 9.11-.32 7.06-10.35 11.77-22.74 11.26-35.46-.26-6.29-3.53-12.34-9.36-15.07s-13.18-2.66-19.43-3.18c-14.12-1.15-28.3-1.27-42.46-1.33-6.16 0-12.74-.34-18.22 3a16.05 16.05 0 0 0 -7.5 15.28c.37 4.32 3.65 9 8.23 9.52 4.42.48 7.41-3.42 7.05-7.6z"/><path d="m304.29 196.14.27-.09c3.63-1.16 5.14-3.84 5.1-7.56 0-4.53-3.77-9.65-8.44-10.19a6.9 6.9 0 0 0 -7.68 5.8c-.55 2.64.09 5.37.45 8l1.28 9.32c.6 4.35 3.5 9 8.23 9.52 4.25.5 7.62-3.44 7.05-7.6l-1-7.57-.48-3.5-.24-1.75c-.14-1.48-.2-1.55-.17-.21l-1.66 3.55.38-.38-5.29 1.89h.35l-6.89-5.07.21.33-1.34-4.45v.34l5.11-7.56-.27.09c-4.3 1.37-6 5.52-4.7 9.79 1.05 3.53 5.44 8.63 9.77 7.25z"/><path d="m185.67 302.92a190.67 190.67 0 0 1 16.2 86.28c-1.51 31.56-11.87 62.01-10.87 93.8.16 5.29 4.92 9.91 10.17 9.48a415.54 415.54 0 0 1 100.69 4.19c4.69.76 7-3.66 7.05-7.6 1.13-64.16 1.2-131.15-29-189.59-3.6-7-14.53-6.55-13.93 2.54q5.52 84 14.67 167.73c.45 4.1 3.09 8.2 7.26 9.26 3.86 1 7.13-1.29 7.92-5.2 7.39-36.73 1.21-74-5.28-110.33-.77-4.3-3.38-9-8.23-9.52-4.62-.5-7.15 3.44-7 7.6a621.89 621.89 0 0 1 -3.48 83.12q-.54 4.89-1.15 9.75a44.42 44.42 0 0 0 -.63 4.87c0-.29-.69 2.59.11 1.86-1.27 1.16-6.86-.07-8.37-.16l-10.77-.58-42.09-2.3 8.06 11.65a305.82 305.82 0 0 0 -6.57-166.77c-1.31-4-5.19-8.06-9.77-7.25s-5.84 6-4.7 9.8c14.29 48.15 19.35 98.2 24.3 148 .41 4.09 3.11 8.21 7.25 9.25 3.49.88 7.68-1.17 7.93-5.2 3.19-51.48 6.11-103.64-6.77-154.13-2.16-8.48-15.28-10.26-14.87.31a1250.28 1250.28 0 0 0 14.13 145.44c.64 4.11 2.94 8.17 7.25 9.26 3.51.89 7.63-1.18 7.93-5.2l8.65-118.42c.34-4.53-1.71-9.34-6.17-11.14-3.72-1.5-8.56.53-8.9 4.94a668.21 668.21 0 0 0 .71 112.9c.89 9.67 15.12 13.78 15.28 1.92l1.48-112.48-15.28-2q6.47 59.29 8 119c.26 9.85 15.23 13.64 15.28 1.91q.25-52.8 3.46-105.54l-15.18-4.06 5.66 98.34c.56 9.81 15 13.67 15.28 1.92q1.26-53.61-.19-107.23l-15.28-1.92 6.35 95.34c.65 9.74 15.43 13.72 15.28 1.91a820.94 820.94 0 0 0 -5.54-84.81c-.57-4.85-6.29-12.57-12-8.83-4.24 2.77-8.71 6-13.74 7-2.36.51-6.7.93-8.42-1.39.33.45.07.95.14.09a5.74 5.74 0 0 1 .91-2.35 10.67 10.67 0 0 1 4.07-3.76c4.71-2.64 10.63-2.74 15.89-3.08 9.18-.58 4.63-16.76-3.13-17.07l-11.9-.48 1.18 17.14a81.74 81.74 0 0 0 21.36-2.13c9.9-2.4 3.94-18.24-5.06-17a67.85 67.85 0 0 1 -21.47-.58l3.17 17.02 13.6-.42c4.11-.13 5.5-5.53 4.9-8.68-.74-3.87-3.8-8-8-8.4l-17.09-1.67a6.61 6.61 0 0 0 -7.05 7.6l10.77 73.13c1.61 10.9 2.1 23.11 8.84 32.3 5.65 7.71 16.83 12.76 25.64 7.11l-11.9-11c-3.12 10.91-13.22 18.72-24.14 20.49l5.07 17a49.8 49.8 0 0 1 19.53.69l-4.95-16.43a189.56 189.56 0 0 1 -34.53 11.4l5.07 17a108.24 108.24 0 0 1 33.66-4.26l-3.12-17.08-21.61.77 8.41 15.18c2.43-3.55 6.55-3.49 10.55-3.7 5.56-.28 11.53-.86 15.76-4.95 8.22-7.95 4.62-20.76-4.56-25.9-7.16-4-10.72 6.49-7.67 11.52a59.07 59.07 0 0 1 8 20.25l9-7.07a2.82 2.82 0 0 1 1.63 2.62l-15.2-3.94c-.33 14.95 7.11 29.08 18.85 38.12 4.73 3.63 11.85.27 10.88-6l-1.34-9.12c-.67-4.31-3.45-9-8.23-9.51a6.59 6.59 0 0 0 -7.05 7.6l1.39 9.05 10.87-6c-7.09-5.45-10.24-13.42-10.05-22.23.18-8.09-14.14-14.37-15.17-4-.87 8.63 3.12 15.58 10.7 19.64 4.6 2.45 9.86-2.29 9-7.08a83.75 83.75 0 0 0 -10.64-29.15l-7.67 11.52.91.51-3.55-2.57c-.19-1-.43-2.07-.71-3.09a.61.61 0 0 1 -.2.69c-.17 0-1.27 1-1.64 1.14-2.9 1.34-6.79.93-9.91 1.15-5.89.42-12.18 2.22-15.67 7.34-4.41 6.46.63 15.46 8.41 15.18l21.61-.78c9.11-.32 4.7-16.79-3.12-17.07a120.81 120.81 0 0 0 -37.55 4.34c-9.65 2.74-3.92 19.09 5.07 17a210.39 210.39 0 0 0 38.14-12.68c3.28-1.44 3.75-6.19 2.87-9.14a10.47 10.47 0 0 0 -7.82-7.29 60.92 60.92 0 0 0 -23.42-.61c-9.89 1.63-4 18.52 5.07 17 16.84-2.74 29.53-15.2 34.14-31.34 1.62-5.67-5.95-14.78-11.9-11-6.19 4-7.95-5.32-8.64-9.44-1.56-9.26-2.77-18.61-4.15-27.9l-8.53-57.53-7.05 7.6 17.09 1.68-3.12-17.03-13.59.42c-4.12.13-5.51 5.53-4.91 8.68a10.26 10.26 0 0 0 8 8.4 81.35 81.35 0 0 0 25.35.5l-5.06-17a67.52 67.52 0 0 1 -17.41 2c-10.71-.23-7.94 16.75 1.18 17.11l11.9.48-3.12-17.07c-8.73.55-17.9 1.72-24.51 8.07a20.77 20.77 0 0 0 -4.56 23.87 23.69 23.69 0 0 0 19.56 13.12c9.07.67 17.15-4.05 24.45-8.82l-12-8.83a820.58 820.58 0 0 1 5.51 84.82l15.28 1.91-6.35-95.33c-.65-9.74-15.6-13.72-15.28-1.92q1.46 53.61.19 107.23l15.28 1.92-5.66-98.34c-.24-4.08-3.24-8.24-7.25-9.26-3.48-.87-7.68 1.17-7.93 5.2q-3.37 54.84-3.66 109.84l15.28 1.91q-1.55-59.62-8-119c-1-9.59-15.13-13.84-15.28-1.91l-1.49 112.52 15.28 1.92a643.79 643.79 0 0 1 -.92-108.62l-15.07-6.2-8.69 118.43 15.18 4.05a1250.49 1250.49 0 0 1 -14.13-145.44l-14.87.31c12.1 47.47 9.16 97 6.15 145.4l15.18 4.05c-5.1-51.26-10.4-102.88-25.11-152.46l-14.4 2.55a288.49 288.49 0 0 1 5.94 158.06c-1.18 4.68 3.06 11.43 8.06 11.66l47 2.56c6.41.35 15.36 2.43 21.32-.71 6.66-3.51 6.79-11.91 7.59-18.41a651.27 651.27 0 0 0 4.59-95.2l-15.28-1.92c6.24 34.92 12.59 70.77 5.49 106.05l15.17 4.06q-9.15-83.7-14.67-167.74l-13.94 2.54c28.62 55.34 27.4 120 26.33 180.68l7.05-7.6a430.75 430.75 0 0 0 -104.57-4.1l10.17 9.47c-1-32.81 10.25-64.6 11-97.37.72-31.59-6.16-62.82-19-91.61-1.68-3.74-6.85-6.42-10.66-4.38-4.28 2.3-3.56 7.73-1.94 11.37z"/><path d="m62.77 391.51a93.7 93.7 0 0 0 43.41 27.62c15.65 4.51 38 8 50.84-4.56 6.3-6.19 10.79-15 15-22.68a206.86 206.86 0 0 0 11.87-25.59 222.07 222.07 0 0 0 8.46-27.18c1-4.29 1.6-8.78 2.93-13a13.2 13.2 0 0 1 2.28-4.67c1.16-1.31 2.08-1.1 3.36-1.86-.35.21 1-.13.9 0s-2.91-2.9-2.26-2.85c-.24 0-3.33 7.1-3.59 7.64l-7.88 16.05-16.2 33c-4 8.13 8.52 19.42 13.9 10.07l12.51-21.79-13.89-10.07a106.08 106.08 0 0 1 -9.41 21.36c-3.28 5.64 4.91 17.78 11.31 12.91l14.54-11.07-10.67-4.38c-.75-1.4.6-.88-.86.51-.58.55-1.15 1.36-2.06 1.33-8.87-.34-8.62 11.59-2.64 15.54 8.34 5.52 18.63 2.72 23.61-5.93 5.9-10.22.71-22.25-4.31-31.65-2.44-4.56-10.63-8-13.25-1.55a263.53 263.53 0 0 1 -30 54.56l12.85 11.73 6.93-12.38-13.89-10.07c-7.7 17.58-20.83 43.92-44.57 35.52-11-3.88-21.55-9.57-32-14.67q-17-8.31-33.76-17.29l6.17 11.14a25.41 25.41 0 0 1 5.94-11.62l-13.52-7.63c-.07 3.1-.42 9.27-4.28 9.8l6.89 16.39c4.47-2.35 9.19-4.26 14.3-3 4 1 7.39 3.57 10.59 6 8 6 15.37 12.26 24.88 15.73 18.46 6.74 39.75 4.88 56.28-6l-11.91-11-.44 8.66c-.33 6.61 6.65 16 13.42 9.76 20.71-19 32.06-45.68 33-73.56.33-9.89-14.89-13.59-15.28-1.92-.8 23.78-12.07 46.21-29.48 62.15l13.42 9.77.44-8.66c.27-5.27-5.23-15.35-11.9-11-15.42 10.13-36.45 11.74-52.56 2.05-8.19-4.93-14.73-12.07-23.37-16.35-10.14-5-20.33-3.62-30.11 1.53-8 4.18-.86 17.45 6.89 16.39 11.86-1.64 14.28-15.06 14.49-24.92.13-5.93-8.57-13.29-13.52-7.62a41 41 0 0 0 -9.25 18.74c-1 4.69 2.3 9.06 6.18 11.13q18.39 9.93 37.17 19.07c11.74 5.67 24.19 13.08 37.16 15.35 27.66 4.83 43.34-22.66 52.62-43.86 3.58-8.19-8.58-19.57-13.89-10.07l-6.93 12.38c-3.77 6.73 7.42 19.23 12.83 11.7a280.5 280.5 0 0 0 32.09-57.82l-13.24-1.54c1.85 3.45 5.33 8.71 4 12.84a5.6 5.6 0 0 1 -2.24 2.75c-.44.28-.92.49-1.38.74-1.4.76-1.63-.39-.59.3l-2.65 15.54c13.85.54 20.53-14.53 14.34-25.93-1.69-3.11-7-7.15-10.66-4.38l-14.56 11.06 11.31 12.91a105.52 105.52 0 0 0 9.44-21.36 10.59 10.59 0 0 0 -3.71-12c-3.63-2.6-8-1.93-10.18 1.95l-12.52 21.79 13.9 10.07 14.88-30.34 7.44-15.22c2.44-5 5.63-10.09 6.61-15.6 1.69-9.49-4.87-19.06-14.64-20-9.28-.87-16 5.72-18.84 14.05-3.07 9.14-4.28 18.85-7.17 28.08a201.66 201.66 0 0 1 -11.09 27.88c-4.19 8.66-8.82 17.6-14.67 25.27-6 7.85-14.34 8.56-23.69 7.95a76.46 76.46 0 0 1 -52-25c-2.75-3-7.65-4.49-10.8-1.2s-1.75 9.09 1 12.12z"/><path d="m40.77 383.73a93.68 93.68 0 0 1 15 3.65c10.75 3.59 11.6-13.1 2.74-16.07a119.11 119.11 0 0 0 -19-4.7c-4.44-.71-7.31 3.6-7.05 7.6.29 4.48 3.71 8.79 8.23 9.52z"/><path d="m31.78 401.31 15.94 4.69c10.86 3.2 11.71-13.42 2.73-16.07l-15.94-4.7c-10.86-3.23-11.71 13.43-2.73 16.08z"/><path d="m46.55 357.41a26.71 26.71 0 0 0 19.21 9.81 6.67 6.67 0 0 0 7-7.6c-.4-4-3.61-9.36-8.22-9.51a18.21 18.21 0 0 1 -3.3-.35c.87.19-1.65-.63-2-.77-.89-.44-1-.49-.32-.15-.46-.3-.92-.62-1.35-1-.8-.65-.86-.7-.18-.13-.38-.4-.74-.82-1.09-1.25-2.58-3.11-7.79-4.5-10.79-1.21-3.15 3.46-1.7 8.92 1 12.12z"/><path d="m82.15 354.61a47.05 47.05 0 0 1 10.69-16.18l-13.42-9.76c-2.39 14.5-15.36 24.74-19.08 38.92-4.81 18.4 8 32.57 21.07 43.48a6.62 6.62 0 0 0 10.18-1.95c2.11-4.29-.4-9.25-3.71-12-4.61-3.85-10.07-8.13-12.42-13.85-2-5 0-10.2 2.26-14.69 5.8-11.35 14.64-20.69 16.77-33.69 1.1-6.65-7.22-15.95-13.42-9.76a57.84 57.84 0 0 0 -12.81 19.43 10.42 10.42 0 0 0 3.71 12c3.21 2.3 8.49 2.27 10.18-1.95z"/><path d="m58.56 370.45a83.29 83.29 0 0 0 30.73 46.74c3.35 2.54 8.25 2 10.18-1.95 2-4.16-.29-9.43-3.71-12a61.62 61.62 0 0 1 -22.76-35.33c-2.46-10.32-17.18-8.84-14.47 2.54z"/><path d="m295.88 314.55c9.71 10.18 13.12 24.45 17.42 37.45 4.74 14.41 8.74 29.37 14.93 43.25 5.61 12.57 15.17 22.82 28.84 26.19 12.65 3.12 26.47-.29 37.66-6.49 14.42-8 25.61-20.51 39.08-29.83l-11.59-6.6c2.33 11.68 7.37 22.16 14.23 31.83 3.29 4.64 11.83 4 12.45-2.36a33.07 33.07 0 0 0 -3.08-17.62c-3.89-8.61-16.86-4.87-13.52 4.77l3.81 11 2.89-9.14a302.11 302.11 0 0 1 -42.16 23.3c-7.17 3.24-14.46 6.23-21.87 8.84-7 2.45-15 5.14-22.42 3.29-11.27-2.82-16.86-15.79-21-25.41-6.45-14.89-12.17-30.14-17.48-45.47q-9.4-27.12-16.63-54.91l-14.46 2.54c13 32.2 25.77 64.49 39 96.6 5.17 12.56 12.17 26.12 26.33 30s31-1.92 44.18-6.73a142.84 142.84 0 0 0 43.46-25.67c6.54-5.55-2.84-17.94-10.25-14.54-21.09 9.68-43.51 18.09-66.34 22.6-4.39.86-9.28 1.6-13.33-.79s-6.93-6.74-9.89-10.19l-24.14-28.14-4.32 14 .86.16-3.83-1.57.7.49-3.06-3.49-.53-2 .69-4.07.21-.18 3.35-1.85v.19l3.83 1.57.09.22 2.32 4.18-.31-.97.31 4.37.15-1a10.67 10.67 0 0 0 -6.17-11.13 6.37 6.37 0 0 0 -8.91 4.94c-1.26 8.35 8.89 20.7 17.13 12.84 7-6.71-.06-18.29-8-19.8-8.23-1.57-7.9 9.84-4.32 14q13.29 15.54 26.6 31.08c8.3 9.64 17.35 16.08 30.6 14.88 12.51-1.13 25.34-5.79 37.18-9.74a376.27 376.27 0 0 0 37.8-14.89l-10.24-14.55a128.66 128.66 0 0 1 -43.38 24.25c-7.87 2.53-16.37 4.8-24.66 5.34-7.3.48-11.95-2-15.67-8.2-4.16-6.93-6.74-14.88-9.75-22.34l-11.09-27.45-22.19-55c-1.58-3.92-5-8.1-9.76-7.25s-5.72 5.92-4.7 9.79a721.86 721.86 0 0 0 36 104.82c5.65 13 13.39 26.27 26.56 32.82 16 7.94 34 0 49.2-6.12a301.74 301.74 0 0 0 53-28 7.9 7.9 0 0 0 2.87-9.14l-3.82-11-13.53 4.77a8.71 8.71 0 0 1 .59 4.43l12.45-2.36a60.68 60.68 0 0 1 -9.57-23.36c-.84-4.21-7.17-9.66-11.6-6.6-13.84 9.58-25.38 22.71-40.4 30.54-11.91 6.22-29.47 9.32-38.87-2.76-4.23-5.43-6.39-12.28-8.52-18.73q-4.49-13.56-8.92-27.15c-5.48-16.66-10.23-34.59-22.67-47.61-8.08-8.47-17.15 3.24-9.82 10.91z"/><path d="m252.25 321.8c-.86 2.39-1.87 4.73-2.65 7.16l4.41-3.48a1.54 1.54 0 0 1 -.43 0h1.95-.15l3.83 1.57-.11-.08 3.06 3.5-.06-.12 1.35 4.45-.09 1.78c-.51 1.44-.61 1.86-.32 1.26.19-.3.34-.63.53-.93l-1.07 1.62.3-.44a8.56 8.56 0 0 0 1.75-5.7 11 11 0 0 0 -2.72-6.42c-1.44-1.51-3.34-2.95-5.5-3.1-1.8-.13-4.21.24-5.3 1.9-1.95 3-3.33 5.53-2.66 9.23.89 4.86 5.42 9.56 10.71 8.54 1.7-.32 3.85-1.73 4.41-3.48.78-2.43 1.79-4.77 2.65-7.16a10.41 10.41 0 0 0 -3.71-12c-1.64-1.09-3.74-2-5.77-1.54a6 6 0 0 0 -4.41 3.49z"/><path d="m205.29 289.23c-11.6 9.44-7.77 29.21 3.65 37 9.7 6.6 14.61-8.44 6.47-14-.47-.32-1.61-1.64-1.28-1a6.07 6.07 0 0 1 -.53-3c.19-2.45 1.59-4.15 3.45-5.66 3.5-2.85 1.48-9.35-1-12.12-3.05-3.44-7.26-4.08-10.79-1.2z"/><path d="m442.61 347.65-9.93 2.61c-9.88 2.59-3.94 18.11 5.07 17a47.87 47.87 0 0 0 16.42-5.18c8.41-4.41-.28-20.17-8.73-15.74a35.9 35.9 0 0 1 -12.76 3.89l5.07 17 9.93-2.61c4.27-1.12 6.06-5.72 4.7-9.79-1.24-3.68-5.27-8.42-9.77-7.24z"/><path d="m448.11 384.45a15.4 15.4 0 0 0 16.39-9.3 10.37 10.37 0 0 0 -3.72-12c-3.26-2.15-8.45-2.39-10.18 1.95-.17.43-.38.82-.57 1.24-.34.77.8-.83.14-.29-.25.2-.61.91-.95 1 .61-.1 1-.7 0-.1-.32.18-.66.31-1 .49-.7.39 1.33-.22 0-.07-.09 0-1.07.13-1.08.16 1 0 1.15 0 .59-.05a5.6 5.6 0 0 1 -.81-.1c-4.33-.65-7.46 3.56-7.05 7.6.45 4.45 3.59 8.83 8.23 9.52z"/><path d="m456.11 406.06a14.57 14.57 0 0 0 14.29-5.31 9.6 9.6 0 0 0 -1-12.12c-2.5-2.62-8-5-10.8-1.2-.28.38-1.24 1.1-1.35 1.51.11-.4 1.23-.74.27-.31l-.44.24c-.61.27-.62.3 0 .08s.58-.18.19-.07l-.5.13c-.33.07-.68.09-1 .16-.83.18 1.23.17.41 0-.4-.1-.84-.12-1.25-.2-4.32-.92-7.45 3.75-7.05 7.6a10.5 10.5 0 0 0 8.22 9.51z"/><path d="m430.56 386.77a56.55 56.55 0 0 0 -5.6-43.86 67.17 67.17 0 0 0 -4.9-7.05c-.61-.77-1.28-1.49-1.86-2.28-.42-.56-.88-2.13-.8-1.26-.42-4.32-3.62-9-8.23-9.52-4.38-.48-7.45 3.42-7.05 7.6.95 10 9.09 15.44 12.65 24.22 3.41 8.4 3.28 17.37.71 26-2.68 9 11.83 17 15.08 6.19z"/></g><path d="m188.93 389.48c-5.67 14.38-11.56 29.47-22.64 40.65-10.66 10.77-25 16.22-39.85 11.87-27.32-8-52.63-22.44-78.26-34.94a21.22 21.22 0 0 0 8-16.06c0-.1 0-.19 0-.28a13.26 13.26 0 0 0 5.66-4.3 14.76 14.76 0 0 0 2.62-12.7 17.17 17.17 0 0 0 10.23-5.82 15.29 15.29 0 0 0 2.06-17.25 16.31 16.31 0 0 0 -6.49-6.58c3.12-.58 5.08-3.07 6.33-6.79 1.76-5.2 4-9.95 8-13.9a21.69 21.69 0 0 1 5.83-4.27c1.46-.72 7-3 8.51-1.71 2.36 2.08-5 16.14-6.05 18.46a199.55 199.55 0 0 1 -9.15 18c-2.78 4.87-5.46 9.68-3.57 15.41 1.83 5.52 7.06 9.32 11.25 13 8.8 7.76 18.53 15.4 29.88 19 9.51 3 22.16 4.26 28.27-5.32 3.2-5 4.55-11.13 6.21-16.78 2.06-7 3.92-14.1 6-21.13 4-13.66 8.72-27.36 16.74-39.23 2.89-4.26-3.54-12.17-6.66-7.55-8.15 12.05-13.26 25.37-17.43 39.23-2.19 7.28-4.13 14.62-6.22 21.93-1.65 5.76-2.89 14.79-7.59 19-5.26 4.7-15.65 1.75-21.38-.58-6.57-2.66-12.41-6.76-17.91-11.19-2.74-2.2-5.4-4.51-8-6.86a24.73 24.73 0 0 1 -3.68-3.47c-1.74-2.41-1.06-4.21.31-6.75 3.74-6.94 7.65-13.71 10.87-20.94 4.11-9.23 15-30.27-1.84-33.71-12.24-2.5-23.31 8.17-28.1 18.3-1 2.1-1.65 7.16-3.77 7.91s-6.86-1.55-9.16-2c-5.3-1-11.13-1.19-16.18 1-7.53 3.26-9.84 10.16-8.88 17.06a4.19 4.19 0 0 0 -.66.55c-4.81 4.9-9.35 10.73-9.13 17.66a6.59 6.59 0 0 0 -.32 1c-1.81 7.57-6.8 14.3-6.09 22.4a22.32 22.32 0 0 0 11 16.73 18.68 18.68 0 0 0 8.07 2.47c16.05 7.34 31.72 15.47 47.66 23.05 8.29 3.94 16.65 7.71 25.17 11.12 7.82 3.13 15.93 6.55 24.3 7.84 14.81 2.28 29.14-4.57 39.51-14.79a72.94 72.94 0 0 0 11.27-14.59 505.71 505.71 0 0 0 -6.67 68.37c-.16 5.6 8.47 7.7 8.66 1.08a487.61 487.61 0 0 1 12.39-95.39 5 5 0 0 0 -1-4.11c.01-4.46-6.15-9.08-8.12-4.1zm-136.47-48.38a35.56 35.56 0 0 1 9.34 1.6c-.3.06-.59.12-.89.21-5.48 1.63-2.09 11.14 2.87 9.66 6.62-2 7.21 5.17 3.29 8.76-5.32 4.87-13.28 3-18.71-.67-3.6-2.42-7.48-6.73-7.38-11.39.12-6.07 6.41-8.2 11.48-8.17zm-15.81 19.29c.33.5.66 1 1 1.47a32.39 32.39 0 0 0 16.95 11.28 5.44 5.44 0 0 0 .81 1c2.1 2-.31 5.61-2.37 6.9-4.4 2.75-10.26.13-14.06-2.42-3.13-2.08-7.48-5.26-7.31-9.43.15-3.36 2.58-6.31 4.98-8.8zm-8.34 20.15a37.87 37.87 0 0 0 12.46 9.06 24.46 24.46 0 0 0 6.58 2c-1.56 8.53-12.9 13.12-19.36 6.57-4.75-4.87-2.27-11.48.32-17.63z" fill="#231815"/><path d="m477.16 370.32c0-.17-.09-.34-.14-.5.15-7.13-4.67-13.33-9.56-18.33a17.08 17.08 0 0 0 -3.24-12.6c-7.64-10.37-20.32-7.36-30.94-4.89-2 .47-.95 1.09-1.84-.37-.78-1.27-1.11-3.25-1.71-4.66a42.69 42.69 0 0 0 -4.93-8.64 32.15 32.15 0 0 0 -13.8-11.06c-4.94-1.94-12.24-3.09-16.48 1-4.84 4.69-2.21 11.88-.23 17.25a207.17 207.17 0 0 0 9.71 22.27c1.66 3.28 3.43 6.49 5.26 9.67.83 1.44 2.63 3.71 2.62 5.5 0 2.08-2.28 4-3.65 5.26-10.1 9.56-22.12 20-36.18 22.74-3.67.71-8.93 1.53-12.33-.49-3.13-1.87-4.08-6.16-5.12-9.41-2.56-8-4.7-16.2-7-24.32-4.53-16-9.78-31.9-19.14-45.75a6 6 0 0 0 -1.26-1.38c39.18-20.55 70.21-60.5 74.81-105.12 5-48.9-25.17-93.35-68-114.85-45.76-23-103.43-20.86-149.35.54-40.05 18.67-74.33 55.13-77.34 101-3.19 48.38 26.08 97.77 71.7 115.52 6 2.33 6.47-7.19 1.55-9.11-37.35-14.53-62.65-52.37-64.73-92-2.23-42.67 25.22-79.06 60.85-99.68 40.37-23.37 92.11-29.57 136.58-15 42.8 14 79.36 51.07 80.65 98 1.36 48.22-32.92 92.81-74.92 113.45-3.62 1.78-1.75 7.28 1.47 8.88a4.6 4.6 0 0 0 .88 3.7c14.41 21.31 17.61 46.72 26 70.48 1.66 4.69 3.85 9.49 8 12.55 4.33 3.22 9.78 3.61 15 3.25 11.79-.82 22.38-7.08 31.49-14.2 7.61-6 21.3-14.35 18.27-25.75-1.49-5.64-5.42-10.68-8.09-15.8a185.35 185.35 0 0 1 -8.85-19.66c-.78-2.05-3.07-5.92-2.7-8.19.61-3.65 6.06-2.29 8.38-1.5 5.05 1.73 8.95 5.77 11.58 10.3 2.4 4.15 2.78 9.85 6.26 13.31a8.29 8.29 0 0 0 2.81 1.88c-6.76 3-10.09 12-6.2 19.7a18.41 18.41 0 0 0 12 9.77 16.21 16.21 0 0 0 3.08 12.18 15.4 15.4 0 0 0 5.44 4.71 22.56 22.56 0 0 0 8.18 16.29c-26 12.54-51.51 27.22-79.1 35.47-14.53 4.34-28.41.16-39.19-10.37-11-10.79-16.92-25.66-22.48-39.75-.87-2.19-2.86-4.63-5.54-4.1-2.17.42-3.3 2.89-2.83 5a4.49 4.49 0 0 0 -.76 4.15 486.79 486.79 0 0 1 12.22 95.34c.16 5.57 8.85 7.73 8.66 1.08a498.11 498.11 0 0 0 -7.72-73.73c11.21 19.66 27.39 36.54 51.86 33.92 8.36-.9 16.5-4.4 24.26-7.46 8.55-3.36 16.94-7.1 25.25-11 16.4-7.75 32.49-16.13 49-23.68a17.84 17.84 0 0 0 7.4-2.13 19.92 19.92 0 0 0 10.43-16.3c.38-8.05-4.46-14.86-6.3-22.38zm-47.05-13c.23-2.9 3.87-5.9 6.77-5 6.15 1.83 6.64-7.59 1.55-9.1a3.39 3.39 0 0 0 -.43-.11c1.08-.32 2.17-.64 3.27-.9 4.57-1.07 11.22-2.32 15.37.71 5.33 3.89.63 11.37-2.74 14.8-4.47 4.55-12.57 8.44-18.95 5.82-2.45-1.03-5.07-3.3-4.84-6.21zm15 17.45a3.56 3.56 0 0 0 1-1.53 27.63 27.63 0 0 0 9.85-4.17 28.6 28.6 0 0 0 8.42-8.92c2 2.11 3.9 4.57 4 7.28.19 4.51-4.71 8.4-8 10.64-3.56 2.42-8.9 5.31-13.31 3.63-3.07-1.16-4.48-4.49-1.95-6.92zm26.36 22.64c-6.48 6.81-18.14 3.94-19-5.72a22.45 22.45 0 0 0 6.87-1.54 33.73 33.73 0 0 0 13-9.12c2.32 5.68 3.9 11.41-.86 16.39z" fill="#231815"/><path d="m208.4 177.57v21.13c0 5.6 8.66 7.73 8.66 1.09v-21.14c0-5.59-8.66-7.72-8.66-1.08z" fill="#231815"/><path d="m282.39 175.8v24.67c0 5.59 8.66 7.72 8.66 1.08v-24.66c0-5.59-8.66-7.72-8.66-1.09z" fill="#231815"/><path d="m278 225.62c-3.88-.57-8.4.37-12.3.59l-13.91.8-29.79 1.72c-2.86.16-3.38 2.77-2.53 5.24a5.39 5.39 0 0 0 -.22.9c-3.55 22.43 18.44 47.13 41.85 40.57 10.49-2.93 19-11.35 22.8-21.49 2.7-7.23 5.34-26.67-5.9-28.33zm-.78 18.11a28.26 28.26 0 0 1 -6.5 13.65c-7 8.15-17.83 11.72-27.92 7.25s-16.73-15.29-15-26.25c0 0 0-.11 0-.17l42.74-2.46c1.33-.08 4.76.39 6-.34-.19-2.15-.13-2.59.19-1.33.19.62.36 1.25.5 1.89a21.76 21.76 0 0 1 -.03 7.76z" fill="#231815"/><path d="m120.67 121c11.07-6.91 14.4-20.92 11.28-33-1.45-5.61-5.13-13.3-12.21-10.94-3.35 1.12-6.41 4.17-9 6.49a74.45 74.45 0 0 0 -9.23 10c-3.17 4.11 3.22 12 6.66 7.56a66.7 66.7 0 0 1 13-13.16c2.57-1.9 2.08-1 2.77 2.3a23.3 23.3 0 0 1 .18 8.65c-1.68 10-11.47 18.32-21.93 15.69-10.83-2.73-14.25-17.6-13-27.17 1.36-10.85 10.81-20.16 22.21-17.12 2.51.67 4.1-2.23 4-4.31a6 6 0 0 0 -4.66-5.39c-12.3-3.28-24.47 5.21-28.48 16.7-4.32 12.37-1.6 27.89 6.58 38.14a24.12 24.12 0 0 0 31.83 5.56z" fill="#231815"/><path d="m155.44 88.09a3.78 3.78 0 0 0 1-.1 3.85 3.85 0 0 0 1.16-.34c8.17-2.57 13-11 12.2-19.53a17.65 17.65 0 0 0 -19-16c-9.38.7-16.9 8.34-15.82 18 1.08 10.16 10.24 18.71 20.46 17.97zm-11.94-18.58c.41-4.84 5.73-7.58 10.1-7.67 11.08-.21 8.65 14.44 0 16.49-5.01.67-10.6-3.44-10.1-8.82z" fill="#231815"/><path d="m193.87 69.58a15.47 15.47 0 0 1 1.48-.5c7.47-2.93 10.57-12.08 8.65-19.47a15.62 15.62 0 0 0 -18.28-11.51c-8.26 1.75-13.86 9.41-11.88 17.82 2.03 8.66 11 15.79 20.03 13.66zm-4.42-22c8.79-1.09 7.45 9.5 1.41 12.35-3.76.81-9-1.45-8.78-6 .19-3.58 4.16-5.93 7.37-6.33z" fill="#231815"/><path d="m242.32 53.05a3.91 3.91 0 0 0 .59-1.94 4.58 4.58 0 0 0 .45-3.87l-7.59-29.44c-1.49-5.81-9.85-5-8.19 1.44l2.34 9.11a15.73 15.73 0 0 0 -10.5 1.91c-6 3.51-8.16 10.64-6.67 17.18 3.25 14.27 21.65 18.36 29.57 5.61zm-9.73-14.36 2.13 8.31c-.09.12-.18.24-.27.38-3.06 4.88-12.45 5.62-13.45-1.25-.87-6.27 6.48-9.96 11.59-7.44z" fill="#231815"/><path d="m307.32 74.79c16.87-6 15.34-25.51 15.41-40.51a123.38 123.38 0 0 0 17.15 3.57c6 .81 4.05-7.65.44-9.4l-.24-.11.9-.17c5.5-1.15 2.31-8.86-1.77-9.68a154.73 154.73 0 0 1 -42.99-15.49c-2.21-1.19-4.61.59-5 2.79a5.48 5.48 0 0 0 1.63 4.88 2.93 2.93 0 0 0 -.43.34c-5-2.28-7.33 5.5-2.85 8.36a126.41 126.41 0 0 0 19.43 10.11 171 171 0 0 1 -3.33 26.86c-.1.48-.21 1-.34 1.49-2.2 1.69-5.09 1.53-7.24-1.32-2.6-3.47-2-9.13-1.9-13.2.07-3.05-3.75-6.77-6.8-5-7.22 4.17-8.64 12.58-5.58 19.53 1.19 11.08 11.69 21.16 23.51 16.95z" fill="#231815"/><path d="m350.46 84.45c14.61 7.17 30-2.89 33.42-17.72a31.88 31.88 0 0 0 .73-5.27 22.93 22.93 0 0 0 -1.2-12.23c-2.7-10.58-9.77-19.74-21.64-17.84a19.56 19.56 0 0 0 -10.77 5.5 20.54 20.54 0 0 0 -3.71 2.76c-11.81 11.09-12.75 37.01 3.17 44.8zm18.65-35.71c3.79 7.92.58 24.67-10.13 25.42a9 9 0 0 1 -6.92-2.67 27.1 27.1 0 0 1 -.93-13.32c2.34-5.51 6.59-10.6 10.48-12.54a9.23 9.23 0 0 1 3.38-.94 8 8 0 0 1 4.12 4.05z" fill="#231815"/><path d="m375.86 98.66a20 20 0 0 0 .39 2.36 2.26 2.26 0 0 1 -.11.22c-1.43 2.92 1 6.59 3.69 7.54 7.31 9.84 23 13.61 34.37 9.62a15.28 15.28 0 0 0 10.13-11 6.22 6.22 0 0 0 .46-4 18.88 18.88 0 0 0 -.62-4.65 20.35 20.35 0 0 0 -1.72-4.39 10.8 10.8 0 0 0 3.18-2.81 17 17 0 0 0 4-5.16c6.75-13.19-1.2-26.05-12.75-32.18a22.82 22.82 0 0 0 -7.23-3.32c-1.38-3.4-5.76-6.18-7.82-2q-11.21 22.8-22.39 45.61c-2.06.01-3.88 1.32-3.58 4.16zm13.73 2.34a101 101 0 0 0 7.87-11.67 4.58 4.58 0 0 0 3.54 1.43 61.76 61.76 0 0 1 8.38 5.91 5.65 5.65 0 0 1 -.22 1.87 8.88 8.88 0 0 1 -7 6 30.7 30.7 0 0 1 -12.57-3.54zm27.78-26.5c-2.29 3.62-9.21 6.6-12.63 3a4.55 4.55 0 0 0 -1.06-.85 101.53 101.53 0 0 0 4.18-12.65 76.14 76.14 0 0 0 5.63 6.19 43.76 43.76 0 0 1 3.88 4.31z" fill="#231815"/><path d="m87.13 297.13a61.58 61.58 0 0 0 13.08-33.9c.17-2.53-.95-5.34-3.49-6.3-2.1-.8-4.88.25-5 2.79a53.81 53.81 0 0 1 -11.21 29.86c-3.23 4.09 3.15 12.01 6.62 7.55z" fill="#231815"/><path d="m422.83 292a52.33 52.33 0 0 1 -14.45-21c-.82-2.2-2.88-4.62-5.53-4.1-2.42.47-3.48 3.37-2.66 5.55a67.42 67.42 0 0 0 19 27.48 3.75 3.75 0 0 0 5.77-1.1c1.2-2.52-.3-5.25-2.13-6.83z" fill="#231815"/></svg>